<mxfile host="app.diagrams.net" agent="Mozilla/5.0 (Windows NT 10.0; Win64; x64; rv:144.0) Gecko/20100101 Firefox/144.0" version="28.2.8">
  <diagram name="Page-1" id="LXGx91UN10P6GlVMGsaX">
    <mxGraphModel dx="3184" dy="1270" grid="1" gridSize="10" guides="1" tooltips="1" connect="1" arrows="1" fold="1" page="1" pageScale="1" pageWidth="827" pageHeight="1169" math="0" shadow="0">
      <root>
        <mxCell id="0" />
        <mxCell id="1" parent="0" />
        <mxCell id="x99MnezzHazOgLGOoJsA-1" style="edgeStyle=orthogonalEdgeStyle;rounded=0;orthogonalLoop=1;jettySize=auto;html=1;exitX=0.5;exitY=1;exitDx=0;exitDy=0;entryX=0.5;entryY=0;entryDx=0;entryDy=0;" parent="1" source="x99MnezzHazOgLGOoJsA-2" target="x99MnezzHazOgLGOoJsA-14" edge="1">
          <mxGeometry relative="1" as="geometry" />
        </mxCell>
        <mxCell id="x99MnezzHazOgLGOoJsA-2" value="&lt;div&gt;APLIKACJA MOBILNA / WWW&lt;/div&gt;" style="rounded=0;whiteSpace=wrap;html=1;" parent="1" vertex="1">
          <mxGeometry x="595" y="210" width="180" height="30" as="geometry" />
        </mxCell>
        <mxCell id="x99MnezzHazOgLGOoJsA-3" style="edgeStyle=orthogonalEdgeStyle;rounded=0;orthogonalLoop=1;jettySize=auto;html=1;exitX=0.5;exitY=1;exitDx=0;exitDy=0;entryX=0.5;entryY=0;entryDx=0;entryDy=0;endArrow=none;endFill=0;" parent="1" source="x99MnezzHazOgLGOoJsA-4" target="x99MnezzHazOgLGOoJsA-6" edge="1">
          <mxGeometry relative="1" as="geometry" />
        </mxCell>
        <mxCell id="x99MnezzHazOgLGOoJsA-4" value="&lt;div&gt;CENTRALNY KONTROLER (HUB)&lt;/div&gt;" style="rounded=0;whiteSpace=wrap;html=1;" parent="1" vertex="1">
          <mxGeometry x="380" y="300" width="200" height="30" as="geometry" />
        </mxCell>
        <mxCell id="x99MnezzHazOgLGOoJsA-5" value="&lt;div&gt;INTELIGENTNY TERMOSTAT&lt;/div&gt;" style="rounded=0;whiteSpace=wrap;html=1;" parent="1" vertex="1">
          <mxGeometry x="750" y="380" width="175" height="30" as="geometry" />
        </mxCell>
        <mxCell id="x99MnezzHazOgLGOoJsA-6" value="&lt;div&gt;SYSTEM ALARMOWY&lt;/div&gt;" style="rounded=0;whiteSpace=wrap;html=1;" parent="1" vertex="1">
          <mxGeometry x="470" y="390" width="132.5" height="30" as="geometry" />
        </mxCell>
        <mxCell id="x99MnezzHazOgLGOoJsA-7" value="&lt;div&gt;KAMERA IP&lt;/div&gt;" style="rounded=0;whiteSpace=wrap;html=1;" parent="1" vertex="1">
          <mxGeometry x="470" y="440" width="80" height="30" as="geometry" />
        </mxCell>
        <mxCell id="x99MnezzHazOgLGOoJsA-8" style="edgeStyle=orthogonalEdgeStyle;rounded=0;orthogonalLoop=1;jettySize=auto;html=1;exitX=0.5;exitY=1;exitDx=0;exitDy=0;entryX=1;entryY=0.5;entryDx=0;entryDy=0;endArrow=none;endFill=0;" parent="1" source="x99MnezzHazOgLGOoJsA-14" target="x99MnezzHazOgLGOoJsA-7" edge="1">
          <mxGeometry relative="1" as="geometry" />
        </mxCell>
        <mxCell id="x99MnezzHazOgLGOoJsA-9" style="edgeStyle=orthogonalEdgeStyle;rounded=0;orthogonalLoop=1;jettySize=auto;html=1;exitX=0.5;exitY=1;exitDx=0;exitDy=0;entryX=1;entryY=0.5;entryDx=0;entryDy=0;endArrow=none;endFill=0;" parent="1" source="x99MnezzHazOgLGOoJsA-14" target="x99MnezzHazOgLGOoJsA-6" edge="1">
          <mxGeometry relative="1" as="geometry" />
        </mxCell>
        <mxCell id="x99MnezzHazOgLGOoJsA-10" style="edgeStyle=orthogonalEdgeStyle;rounded=0;orthogonalLoop=1;jettySize=auto;html=1;exitX=0.5;exitY=1;exitDx=0;exitDy=0;entryX=1;entryY=0.5;entryDx=0;entryDy=0;endArrow=none;endFill=0;" parent="1" source="x99MnezzHazOgLGOoJsA-14" target="x99MnezzHazOgLGOoJsA-20" edge="1">
          <mxGeometry relative="1" as="geometry" />
        </mxCell>
        <mxCell id="x99MnezzHazOgLGOoJsA-11" style="edgeStyle=orthogonalEdgeStyle;rounded=0;orthogonalLoop=1;jettySize=auto;html=1;exitX=0.5;exitY=1;exitDx=0;exitDy=0;entryX=0;entryY=0.5;entryDx=0;entryDy=0;endArrow=none;endFill=0;" parent="1" source="x99MnezzHazOgLGOoJsA-14" target="x99MnezzHazOgLGOoJsA-5" edge="1">
          <mxGeometry relative="1" as="geometry" />
        </mxCell>
        <mxCell id="x99MnezzHazOgLGOoJsA-12" style="edgeStyle=orthogonalEdgeStyle;rounded=0;orthogonalLoop=1;jettySize=auto;html=1;exitX=0.5;exitY=1;exitDx=0;exitDy=0;entryX=0;entryY=0.5;entryDx=0;entryDy=0;endArrow=none;endFill=0;" parent="1" source="x99MnezzHazOgLGOoJsA-14" target="x99MnezzHazOgLGOoJsA-19" edge="1">
          <mxGeometry relative="1" as="geometry" />
        </mxCell>
        <mxCell id="x99MnezzHazOgLGOoJsA-13" style="edgeStyle=orthogonalEdgeStyle;rounded=0;orthogonalLoop=1;jettySize=auto;html=1;exitX=0;exitY=0.5;exitDx=0;exitDy=0;entryX=1;entryY=0.5;entryDx=0;entryDy=0;endArrow=none;endFill=0;" parent="1" source="x99MnezzHazOgLGOoJsA-14" target="x99MnezzHazOgLGOoJsA-4" edge="1">
          <mxGeometry relative="1" as="geometry" />
        </mxCell>
        <mxCell id="x99MnezzHazOgLGOoJsA-14" value="&lt;div&gt;ROUTER WI-FI&lt;/div&gt;" style="rounded=0;whiteSpace=wrap;html=1;" parent="1" vertex="1">
          <mxGeometry x="635" y="300" width="100" height="30" as="geometry" />
        </mxCell>
        <mxCell id="x99MnezzHazOgLGOoJsA-15" style="edgeStyle=orthogonalEdgeStyle;rounded=0;orthogonalLoop=1;jettySize=auto;html=1;exitX=1;exitY=0.5;exitDx=0;exitDy=0;entryX=0;entryY=0.5;entryDx=0;entryDy=0;" parent="1" source="x99MnezzHazOgLGOoJsA-18" target="x99MnezzHazOgLGOoJsA-7" edge="1">
          <mxGeometry relative="1" as="geometry" />
        </mxCell>
        <mxCell id="x99MnezzHazOgLGOoJsA-16" style="edgeStyle=orthogonalEdgeStyle;rounded=0;orthogonalLoop=1;jettySize=auto;html=1;exitX=1;exitY=0.5;exitDx=0;exitDy=0;entryX=0;entryY=0.5;entryDx=0;entryDy=0;" parent="1" source="x99MnezzHazOgLGOoJsA-18" target="x99MnezzHazOgLGOoJsA-6" edge="1">
          <mxGeometry relative="1" as="geometry" />
        </mxCell>
        <mxCell id="x99MnezzHazOgLGOoJsA-17" style="edgeStyle=orthogonalEdgeStyle;rounded=0;orthogonalLoop=1;jettySize=auto;html=1;exitX=1;exitY=0.5;exitDx=0;exitDy=0;entryX=0;entryY=0.5;entryDx=0;entryDy=0;" parent="1" source="x99MnezzHazOgLGOoJsA-18" target="x99MnezzHazOgLGOoJsA-20" edge="1">
          <mxGeometry relative="1" as="geometry" />
        </mxCell>
        <mxCell id="x99MnezzHazOgLGOoJsA-18" value="&lt;div&gt;CZUJNIK RUCHU&lt;/div&gt;" style="rounded=0;whiteSpace=wrap;html=1;" parent="1" vertex="1">
          <mxGeometry x="300" y="440" width="110" height="30" as="geometry" />
        </mxCell>
        <mxCell id="x99MnezzHazOgLGOoJsA-19" value="&lt;div&gt;INTELIGENTNY ZAMEK DRZWI&lt;/div&gt;" style="rounded=0;whiteSpace=wrap;html=1;" parent="1" vertex="1">
          <mxGeometry x="750" y="450" width="180" height="30" as="geometry" />
        </mxCell>
        <mxCell id="x99MnezzHazOgLGOoJsA-20" value="&lt;div&gt;INTELIGENTNA ŻARÓWKA LED&lt;/div&gt;" style="rounded=0;whiteSpace=wrap;html=1;" parent="1" vertex="1">
          <mxGeometry x="470" y="490" width="190" height="30" as="geometry" />
        </mxCell>
        <mxCell id="x99MnezzHazOgLGOoJsA-21" style="edgeStyle=orthogonalEdgeStyle;rounded=0;orthogonalLoop=1;jettySize=auto;html=1;entryX=0;entryY=0.5;entryDx=0;entryDy=0;" parent="1" source="x99MnezzHazOgLGOoJsA-22" target="x99MnezzHazOgLGOoJsA-2" edge="1">
          <mxGeometry relative="1" as="geometry" />
        </mxCell>
        <mxCell id="x99MnezzHazOgLGOoJsA-22" value="&lt;div&gt;Użytkownik&lt;/div&gt;" style="shape=umlActor;verticalLabelPosition=bottom;verticalAlign=top;html=1;outlineConnect=0;" parent="1" vertex="1">
          <mxGeometry x="490" y="195" width="30" height="60" as="geometry" />
        </mxCell>
        <mxCell id="x99MnezzHazOgLGOoJsA-23" value="INTERNET" style="ellipse;shape=cloud;whiteSpace=wrap;html=1;" parent="1" vertex="1">
          <mxGeometry x="790" y="195" width="120" height="80" as="geometry" />
        </mxCell>
        <mxCell id="x99MnezzHazOgLGOoJsA-24" style="edgeStyle=orthogonalEdgeStyle;rounded=0;orthogonalLoop=1;jettySize=auto;html=1;exitX=1;exitY=0.5;exitDx=0;exitDy=0;entryX=0.55;entryY=0.95;entryDx=0;entryDy=0;entryPerimeter=0;endArrow=none;endFill=0;" parent="1" source="x99MnezzHazOgLGOoJsA-14" target="x99MnezzHazOgLGOoJsA-23" edge="1">
          <mxGeometry relative="1" as="geometry" />
        </mxCell>
        <mxCell id="x99MnezzHazOgLGOoJsA-25" value="&lt;font style=&quot;font-size: 18px;&quot;&gt;&lt;b&gt;SCHEMAT FUNKCJONALNY SYSTEMU&lt;/b&gt;&lt;/font&gt;" style="text;html=1;whiteSpace=wrap;strokeColor=none;fillColor=none;align=center;verticalAlign=middle;rounded=0;" parent="1" vertex="1">
          <mxGeometry x="460" y="120" width="360" height="30" as="geometry" />
        </mxCell>
        <mxCell id="x99MnezzHazOgLGOoJsA-26" value="&lt;font style=&quot;font-size: 18px;&quot;&gt;&lt;b&gt;SCHEMAT NIEZAWODNOŚCIOWY SYSTEMU&lt;/b&gt;&lt;/font&gt;" style="text;html=1;whiteSpace=wrap;strokeColor=none;fillColor=none;align=center;verticalAlign=middle;rounded=0;" parent="1" vertex="1">
          <mxGeometry x="1060" y="120" width="420" height="30" as="geometry" />
        </mxCell>
        <mxCell id="x99MnezzHazOgLGOoJsA-82" style="edgeStyle=orthogonalEdgeStyle;rounded=0;orthogonalLoop=1;jettySize=auto;html=1;exitX=1;exitY=0.5;exitDx=0;exitDy=0;entryX=0;entryY=0.5;entryDx=0;entryDy=0;" parent="1" source="x99MnezzHazOgLGOoJsA-72" target="x99MnezzHazOgLGOoJsA-73" edge="1">
          <mxGeometry relative="1" as="geometry" />
        </mxCell>
        <mxCell id="x99MnezzHazOgLGOoJsA-72" value="1" style="rounded=0;whiteSpace=wrap;html=1;strokeColor=none;fillColor=default;" parent="1" vertex="1">
          <mxGeometry x="1040" y="225" width="20" height="20" as="geometry" />
        </mxCell>
        <mxCell id="x99MnezzHazOgLGOoJsA-83" style="edgeStyle=orthogonalEdgeStyle;rounded=0;orthogonalLoop=1;jettySize=auto;html=1;exitX=1;exitY=0.5;exitDx=0;exitDy=0;entryX=0;entryY=0.5;entryDx=0;entryDy=0;" parent="1" source="x99MnezzHazOgLGOoJsA-73" target="x99MnezzHazOgLGOoJsA-74" edge="1">
          <mxGeometry relative="1" as="geometry" />
        </mxCell>
        <mxCell id="x99MnezzHazOgLGOoJsA-73" value="1" style="rounded=0;whiteSpace=wrap;html=1;" parent="1" vertex="1">
          <mxGeometry x="1090" y="225" width="20" height="20" as="geometry" />
        </mxCell>
        <mxCell id="x99MnezzHazOgLGOoJsA-74" value="2" style="rounded=0;whiteSpace=wrap;html=1;" parent="1" vertex="1">
          <mxGeometry x="1140" y="225" width="20" height="20" as="geometry" />
        </mxCell>
        <mxCell id="x99MnezzHazOgLGOoJsA-85" style="edgeStyle=orthogonalEdgeStyle;rounded=0;orthogonalLoop=1;jettySize=auto;html=1;exitX=1;exitY=0.5;exitDx=0;exitDy=0;entryX=0;entryY=0.5;entryDx=0;entryDy=0;" parent="1" source="x99MnezzHazOgLGOoJsA-74" target="x99MnezzHazOgLGOoJsA-76" edge="1">
          <mxGeometry relative="1" as="geometry">
            <mxPoint x="1210" y="235" as="sourcePoint" />
            <Array as="points">
              <mxPoint x="1190" y="235" />
              <mxPoint x="1190" y="205" />
            </Array>
          </mxGeometry>
        </mxCell>
        <mxCell id="x99MnezzHazOgLGOoJsA-86" style="edgeStyle=orthogonalEdgeStyle;rounded=0;orthogonalLoop=1;jettySize=auto;html=1;exitX=1;exitY=0.5;exitDx=0;exitDy=0;entryX=0;entryY=0.5;entryDx=0;entryDy=0;" parent="1" source="x99MnezzHazOgLGOoJsA-74" target="x99MnezzHazOgLGOoJsA-77" edge="1">
          <mxGeometry relative="1" as="geometry">
            <mxPoint x="1210" y="235" as="sourcePoint" />
            <Array as="points">
              <mxPoint x="1190" y="235" />
              <mxPoint x="1190" y="270" />
            </Array>
          </mxGeometry>
        </mxCell>
        <mxCell id="x99MnezzHazOgLGOoJsA-87" style="edgeStyle=orthogonalEdgeStyle;rounded=0;orthogonalLoop=1;jettySize=auto;html=1;exitX=1;exitY=0.5;exitDx=0;exitDy=0;entryX=0;entryY=0.5;entryDx=0;entryDy=0;" parent="1" source="x99MnezzHazOgLGOoJsA-76" target="x99MnezzHazOgLGOoJsA-78" edge="1">
          <mxGeometry relative="1" as="geometry">
            <Array as="points">
              <mxPoint x="1260" y="205" />
              <mxPoint x="1260" y="235" />
            </Array>
          </mxGeometry>
        </mxCell>
        <mxCell id="x99MnezzHazOgLGOoJsA-76" value="3" style="rounded=0;whiteSpace=wrap;html=1;" parent="1" vertex="1">
          <mxGeometry x="1210" y="195" width="20" height="20" as="geometry" />
        </mxCell>
        <mxCell id="x99MnezzHazOgLGOoJsA-88" style="edgeStyle=orthogonalEdgeStyle;rounded=0;orthogonalLoop=1;jettySize=auto;html=1;exitX=1;exitY=0.5;exitDx=0;exitDy=0;" parent="1" source="x99MnezzHazOgLGOoJsA-77" edge="1">
          <mxGeometry relative="1" as="geometry">
            <mxPoint x="1280" y="235" as="targetPoint" />
            <Array as="points">
              <mxPoint x="1260" y="270" />
              <mxPoint x="1260" y="235" />
            </Array>
          </mxGeometry>
        </mxCell>
        <mxCell id="x99MnezzHazOgLGOoJsA-77" value="4" style="rounded=0;whiteSpace=wrap;html=1;" parent="1" vertex="1">
          <mxGeometry x="1210" y="260" width="20" height="20" as="geometry" />
        </mxCell>
        <mxCell id="x99MnezzHazOgLGOoJsA-89" style="edgeStyle=orthogonalEdgeStyle;rounded=0;orthogonalLoop=1;jettySize=auto;html=1;exitX=1;exitY=0.5;exitDx=0;exitDy=0;entryX=0;entryY=0.5;entryDx=0;entryDy=0;" parent="1" source="x99MnezzHazOgLGOoJsA-78" target="x99MnezzHazOgLGOoJsA-79" edge="1">
          <mxGeometry relative="1" as="geometry" />
        </mxCell>
        <mxCell id="x99MnezzHazOgLGOoJsA-78" value="5" style="rounded=0;whiteSpace=wrap;html=1;" parent="1" vertex="1">
          <mxGeometry x="1280" y="225" width="20" height="20" as="geometry" />
        </mxCell>
        <mxCell id="x99MnezzHazOgLGOoJsA-90" style="edgeStyle=orthogonalEdgeStyle;rounded=0;orthogonalLoop=1;jettySize=auto;html=1;exitX=1;exitY=0.5;exitDx=0;exitDy=0;entryX=0;entryY=0.5;entryDx=0;entryDy=0;" parent="1" source="x99MnezzHazOgLGOoJsA-79" target="x99MnezzHazOgLGOoJsA-80" edge="1">
          <mxGeometry relative="1" as="geometry" />
        </mxCell>
        <mxCell id="x99MnezzHazOgLGOoJsA-79" value="6" style="rounded=0;whiteSpace=wrap;html=1;" parent="1" vertex="1">
          <mxGeometry x="1330" y="225" width="20" height="20" as="geometry" />
        </mxCell>
        <mxCell id="x99MnezzHazOgLGOoJsA-91" style="edgeStyle=orthogonalEdgeStyle;rounded=0;orthogonalLoop=1;jettySize=auto;html=1;exitX=1;exitY=0.5;exitDx=0;exitDy=0;entryX=0;entryY=0.5;entryDx=0;entryDy=0;" parent="1" source="x99MnezzHazOgLGOoJsA-80" target="x99MnezzHazOgLGOoJsA-93" edge="1">
          <mxGeometry relative="1" as="geometry">
            <mxPoint x="1430" y="235" as="targetPoint" />
          </mxGeometry>
        </mxCell>
        <mxCell id="x99MnezzHazOgLGOoJsA-80" value="7" style="rounded=0;whiteSpace=wrap;html=1;" parent="1" vertex="1">
          <mxGeometry x="1380" y="225" width="20" height="20" as="geometry" />
        </mxCell>
        <mxCell id="x99MnezzHazOgLGOoJsA-92" value="1" style="rounded=0;whiteSpace=wrap;html=1;strokeColor=none;fillColor=default;" parent="1" vertex="1">
          <mxGeometry x="1480" y="225" width="20" height="20" as="geometry" />
        </mxCell>
        <mxCell id="x99MnezzHazOgLGOoJsA-95" style="edgeStyle=orthogonalEdgeStyle;rounded=0;orthogonalLoop=1;jettySize=auto;html=1;exitX=1;exitY=0.5;exitDx=0;exitDy=0;entryX=0;entryY=0.5;entryDx=0;entryDy=0;" parent="1" source="x99MnezzHazOgLGOoJsA-93" target="x99MnezzHazOgLGOoJsA-92" edge="1">
          <mxGeometry relative="1" as="geometry" />
        </mxCell>
        <mxCell id="x99MnezzHazOgLGOoJsA-93" value="8" style="rounded=0;whiteSpace=wrap;html=1;" parent="1" vertex="1">
          <mxGeometry x="1430" y="225" width="20" height="20" as="geometry" />
        </mxCell>
        <mxCell id="Rtv8AEi2oojKbHXFzOrV-1" style="edgeStyle=orthogonalEdgeStyle;rounded=0;orthogonalLoop=1;jettySize=auto;html=1;exitX=1;exitY=0.5;exitDx=0;exitDy=0;entryX=0;entryY=0.5;entryDx=0;entryDy=0;" parent="1" source="Rtv8AEi2oojKbHXFzOrV-2" target="Rtv8AEi2oojKbHXFzOrV-4" edge="1">
          <mxGeometry relative="1" as="geometry" />
        </mxCell>
        <mxCell id="Rtv8AEi2oojKbHXFzOrV-2" value="1" style="rounded=0;whiteSpace=wrap;html=1;strokeColor=none;fillColor=default;" parent="1" vertex="1">
          <mxGeometry x="1020" y="360" width="20" height="20" as="geometry" />
        </mxCell>
        <mxCell id="Rtv8AEi2oojKbHXFzOrV-3" style="edgeStyle=orthogonalEdgeStyle;rounded=0;orthogonalLoop=1;jettySize=auto;html=1;exitX=1;exitY=0.5;exitDx=0;exitDy=0;entryX=0;entryY=0.5;entryDx=0;entryDy=0;" parent="1" source="Rtv8AEi2oojKbHXFzOrV-4" target="Rtv8AEi2oojKbHXFzOrV-5" edge="1">
          <mxGeometry relative="1" as="geometry" />
        </mxCell>
        <mxCell id="Rtv8AEi2oojKbHXFzOrV-4" value="1" style="rounded=0;whiteSpace=wrap;html=1;" parent="1" vertex="1">
          <mxGeometry x="1080" y="360" width="20" height="20" as="geometry" />
        </mxCell>
        <mxCell id="Rtv8AEi2oojKbHXFzOrV-5" value="2" style="rounded=0;whiteSpace=wrap;html=1;" parent="1" vertex="1">
          <mxGeometry x="1140" y="360" width="20" height="20" as="geometry" />
        </mxCell>
        <mxCell id="Rtv8AEi2oojKbHXFzOrV-6" style="edgeStyle=orthogonalEdgeStyle;rounded=0;orthogonalLoop=1;jettySize=auto;html=1;exitX=1;exitY=0.5;exitDx=0;exitDy=0;entryX=0;entryY=0.5;entryDx=0;entryDy=0;" parent="1" source="Rtv8AEi2oojKbHXFzOrV-5" target="Rtv8AEi2oojKbHXFzOrV-9" edge="1">
          <mxGeometry relative="1" as="geometry">
            <mxPoint x="1210" y="370" as="sourcePoint" />
            <Array as="points">
              <mxPoint x="1190" y="370" />
              <mxPoint x="1190" y="340" />
            </Array>
          </mxGeometry>
        </mxCell>
        <mxCell id="Rtv8AEi2oojKbHXFzOrV-7" style="edgeStyle=orthogonalEdgeStyle;rounded=0;orthogonalLoop=1;jettySize=auto;html=1;exitX=1;exitY=0.5;exitDx=0;exitDy=0;entryX=0;entryY=0.5;entryDx=0;entryDy=0;" parent="1" source="Rtv8AEi2oojKbHXFzOrV-5" target="Rtv8AEi2oojKbHXFzOrV-11" edge="1">
          <mxGeometry relative="1" as="geometry">
            <mxPoint x="1210" y="370" as="sourcePoint" />
            <Array as="points">
              <mxPoint x="1190" y="370" />
              <mxPoint x="1190" y="405" />
            </Array>
          </mxGeometry>
        </mxCell>
        <mxCell id="Rtv8AEi2oojKbHXFzOrV-8" style="edgeStyle=orthogonalEdgeStyle;rounded=0;orthogonalLoop=1;jettySize=auto;html=1;exitX=1;exitY=0.5;exitDx=0;exitDy=0;entryX=0;entryY=0.5;entryDx=0;entryDy=0;" parent="1" source="Rtv8AEi2oojKbHXFzOrV-9" target="Rtv8AEi2oojKbHXFzOrV-13" edge="1">
          <mxGeometry relative="1" as="geometry">
            <Array as="points">
              <mxPoint x="1260" y="340" />
              <mxPoint x="1260" y="370" />
            </Array>
          </mxGeometry>
        </mxCell>
        <mxCell id="Rtv8AEi2oojKbHXFzOrV-9" value="3" style="rounded=0;whiteSpace=wrap;html=1;" parent="1" vertex="1">
          <mxGeometry x="1210" y="330" width="20" height="20" as="geometry" />
        </mxCell>
        <mxCell id="Rtv8AEi2oojKbHXFzOrV-10" style="edgeStyle=orthogonalEdgeStyle;rounded=0;orthogonalLoop=1;jettySize=auto;html=1;exitX=1;exitY=0.5;exitDx=0;exitDy=0;" parent="1" source="Rtv8AEi2oojKbHXFzOrV-11" edge="1">
          <mxGeometry relative="1" as="geometry">
            <mxPoint x="1280" y="370" as="targetPoint" />
            <Array as="points">
              <mxPoint x="1260" y="405" />
              <mxPoint x="1260" y="370" />
            </Array>
          </mxGeometry>
        </mxCell>
        <mxCell id="Rtv8AEi2oojKbHXFzOrV-11" value="4" style="rounded=0;whiteSpace=wrap;html=1;" parent="1" vertex="1">
          <mxGeometry x="1210" y="395" width="20" height="20" as="geometry" />
        </mxCell>
        <mxCell id="Rtv8AEi2oojKbHXFzOrV-12" style="edgeStyle=orthogonalEdgeStyle;rounded=0;orthogonalLoop=1;jettySize=auto;html=1;exitX=1;exitY=0.5;exitDx=0;exitDy=0;entryX=0;entryY=0.5;entryDx=0;entryDy=0;" parent="1" source="Rtv8AEi2oojKbHXFzOrV-13" target="Rtv8AEi2oojKbHXFzOrV-15" edge="1">
          <mxGeometry relative="1" as="geometry" />
        </mxCell>
        <mxCell id="Rtv8AEi2oojKbHXFzOrV-13" value="5" style="rounded=0;whiteSpace=wrap;html=1;" parent="1" vertex="1">
          <mxGeometry x="1280" y="360" width="20" height="20" as="geometry" />
        </mxCell>
        <mxCell id="Rtv8AEi2oojKbHXFzOrV-14" style="edgeStyle=orthogonalEdgeStyle;rounded=0;orthogonalLoop=1;jettySize=auto;html=1;exitX=1;exitY=0.5;exitDx=0;exitDy=0;entryX=0;entryY=0.5;entryDx=0;entryDy=0;" parent="1" source="Rtv8AEi2oojKbHXFzOrV-15" target="Rtv8AEi2oojKbHXFzOrV-17" edge="1">
          <mxGeometry relative="1" as="geometry" />
        </mxCell>
        <mxCell id="Rtv8AEi2oojKbHXFzOrV-15" value="6" style="rounded=0;whiteSpace=wrap;html=1;" parent="1" vertex="1">
          <mxGeometry x="1330" y="360" width="20" height="20" as="geometry" />
        </mxCell>
        <mxCell id="Rtv8AEi2oojKbHXFzOrV-16" style="edgeStyle=orthogonalEdgeStyle;rounded=0;orthogonalLoop=1;jettySize=auto;html=1;exitX=1;exitY=0.5;exitDx=0;exitDy=0;entryX=0;entryY=0.5;entryDx=0;entryDy=0;" parent="1" source="Rtv8AEi2oojKbHXFzOrV-17" target="Rtv8AEi2oojKbHXFzOrV-20" edge="1">
          <mxGeometry relative="1" as="geometry">
            <mxPoint x="1430" y="370" as="targetPoint" />
          </mxGeometry>
        </mxCell>
        <mxCell id="Rtv8AEi2oojKbHXFzOrV-17" value="7" style="rounded=0;whiteSpace=wrap;html=1;" parent="1" vertex="1">
          <mxGeometry x="1380" y="360" width="20" height="20" as="geometry" />
        </mxCell>
        <mxCell id="Rtv8AEi2oojKbHXFzOrV-18" value="1" style="rounded=0;whiteSpace=wrap;html=1;strokeColor=none;fillColor=default;" parent="1" vertex="1">
          <mxGeometry x="1480" y="360" width="20" height="20" as="geometry" />
        </mxCell>
        <mxCell id="Rtv8AEi2oojKbHXFzOrV-19" style="edgeStyle=orthogonalEdgeStyle;rounded=0;orthogonalLoop=1;jettySize=auto;html=1;exitX=1;exitY=0.5;exitDx=0;exitDy=0;entryX=0;entryY=0.5;entryDx=0;entryDy=0;" parent="1" source="Rtv8AEi2oojKbHXFzOrV-20" target="Rtv8AEi2oojKbHXFzOrV-18" edge="1">
          <mxGeometry relative="1" as="geometry" />
        </mxCell>
        <mxCell id="Rtv8AEi2oojKbHXFzOrV-20" value="8" style="rounded=0;whiteSpace=wrap;html=1;" parent="1" vertex="1">
          <mxGeometry x="1430" y="360" width="20" height="20" as="geometry" />
        </mxCell>
        <mxCell id="Rtv8AEi2oojKbHXFzOrV-23" style="edgeStyle=orthogonalEdgeStyle;rounded=0;orthogonalLoop=1;jettySize=auto;html=1;exitX=0;exitY=0.5;exitDx=0;exitDy=0;entryX=0;entryY=0.5;entryDx=0;entryDy=0;strokeColor=default;dashed=1;" parent="1" target="Rtv8AEi2oojKbHXFzOrV-21" edge="1">
          <mxGeometry relative="1" as="geometry">
            <mxPoint x="1060" y="370" as="sourcePoint" />
            <Array as="points">
              <mxPoint x="1060" y="420" />
            </Array>
          </mxGeometry>
        </mxCell>
        <mxCell id="Rtv8AEi2oojKbHXFzOrV-24" style="edgeStyle=orthogonalEdgeStyle;rounded=0;orthogonalLoop=1;jettySize=auto;html=1;exitX=1;exitY=0.5;exitDx=0;exitDy=0;dashed=1;" parent="1" source="Rtv8AEi2oojKbHXFzOrV-21" edge="1">
          <mxGeometry relative="1" as="geometry">
            <mxPoint x="1120" y="370" as="targetPoint" />
            <Array as="points">
              <mxPoint x="1120" y="420" />
            </Array>
          </mxGeometry>
        </mxCell>
        <mxCell id="Rtv8AEi2oojKbHXFzOrV-21" value="9" style="rounded=0;whiteSpace=wrap;html=1;" parent="1" vertex="1">
          <mxGeometry x="1080" y="410" width="20" height="20" as="geometry" />
        </mxCell>
        <mxCell id="Rtv8AEi2oojKbHXFzOrV-48" style="edgeStyle=orthogonalEdgeStyle;rounded=0;orthogonalLoop=1;jettySize=auto;html=1;exitX=1;exitY=0.5;exitDx=0;exitDy=0;entryX=0;entryY=0.5;entryDx=0;entryDy=0;" parent="1" source="Rtv8AEi2oojKbHXFzOrV-49" target="Rtv8AEi2oojKbHXFzOrV-51" edge="1">
          <mxGeometry relative="1" as="geometry" />
        </mxCell>
        <mxCell id="Rtv8AEi2oojKbHXFzOrV-49" value="1" style="rounded=0;whiteSpace=wrap;html=1;strokeColor=none;fillColor=default;" parent="1" vertex="1">
          <mxGeometry x="1030" y="480" width="20" height="20" as="geometry" />
        </mxCell>
        <mxCell id="Rtv8AEi2oojKbHXFzOrV-50" style="edgeStyle=orthogonalEdgeStyle;rounded=0;orthogonalLoop=1;jettySize=auto;html=1;exitX=1;exitY=0.5;exitDx=0;exitDy=0;entryX=0;entryY=0.5;entryDx=0;entryDy=0;" parent="1" source="Rtv8AEi2oojKbHXFzOrV-51" target="Rtv8AEi2oojKbHXFzOrV-52" edge="1">
          <mxGeometry relative="1" as="geometry" />
        </mxCell>
        <mxCell id="Rtv8AEi2oojKbHXFzOrV-51" value="1" style="rounded=0;whiteSpace=wrap;html=1;" parent="1" vertex="1">
          <mxGeometry x="1080" y="480" width="20" height="20" as="geometry" />
        </mxCell>
        <mxCell id="Rtv8AEi2oojKbHXFzOrV-52" value="2" style="rounded=0;whiteSpace=wrap;html=1;" parent="1" vertex="1">
          <mxGeometry x="1140" y="480" width="20" height="20" as="geometry" />
        </mxCell>
        <mxCell id="Rtv8AEi2oojKbHXFzOrV-53" style="edgeStyle=orthogonalEdgeStyle;rounded=0;orthogonalLoop=1;jettySize=auto;html=1;exitX=1;exitY=0.5;exitDx=0;exitDy=0;entryX=0;entryY=0.5;entryDx=0;entryDy=0;" parent="1" source="Rtv8AEi2oojKbHXFzOrV-52" target="Rtv8AEi2oojKbHXFzOrV-56" edge="1">
          <mxGeometry relative="1" as="geometry">
            <mxPoint x="1210" y="490" as="sourcePoint" />
            <Array as="points">
              <mxPoint x="1200" y="490" />
              <mxPoint x="1200" y="460" />
            </Array>
          </mxGeometry>
        </mxCell>
        <mxCell id="Rtv8AEi2oojKbHXFzOrV-54" style="edgeStyle=orthogonalEdgeStyle;rounded=0;orthogonalLoop=1;jettySize=auto;html=1;exitX=1;exitY=0.5;exitDx=0;exitDy=0;entryX=0;entryY=0.5;entryDx=0;entryDy=0;" parent="1" source="Rtv8AEi2oojKbHXFzOrV-52" target="Rtv8AEi2oojKbHXFzOrV-58" edge="1">
          <mxGeometry relative="1" as="geometry">
            <mxPoint x="1210" y="490" as="sourcePoint" />
            <Array as="points">
              <mxPoint x="1200" y="490" />
              <mxPoint x="1200" y="525" />
            </Array>
          </mxGeometry>
        </mxCell>
        <mxCell id="Rtv8AEi2oojKbHXFzOrV-55" style="edgeStyle=orthogonalEdgeStyle;rounded=0;orthogonalLoop=1;jettySize=auto;html=1;exitX=1;exitY=0.5;exitDx=0;exitDy=0;entryX=0;entryY=0.5;entryDx=0;entryDy=0;" parent="1" source="Rtv8AEi2oojKbHXFzOrV-56" target="Rtv8AEi2oojKbHXFzOrV-60" edge="1">
          <mxGeometry relative="1" as="geometry">
            <Array as="points">
              <mxPoint x="1270" y="460" />
              <mxPoint x="1270" y="490" />
            </Array>
          </mxGeometry>
        </mxCell>
        <mxCell id="Rtv8AEi2oojKbHXFzOrV-56" value="3" style="rounded=0;whiteSpace=wrap;html=1;" parent="1" vertex="1">
          <mxGeometry x="1220" y="450" width="20" height="20" as="geometry" />
        </mxCell>
        <mxCell id="Rtv8AEi2oojKbHXFzOrV-57" style="edgeStyle=orthogonalEdgeStyle;rounded=0;orthogonalLoop=1;jettySize=auto;html=1;exitX=1;exitY=0.5;exitDx=0;exitDy=0;" parent="1" source="Rtv8AEi2oojKbHXFzOrV-58" edge="1">
          <mxGeometry relative="1" as="geometry">
            <mxPoint x="1290" y="490" as="targetPoint" />
            <Array as="points">
              <mxPoint x="1270" y="525" />
              <mxPoint x="1270" y="490" />
            </Array>
          </mxGeometry>
        </mxCell>
        <mxCell id="Rtv8AEi2oojKbHXFzOrV-58" value="4" style="rounded=0;whiteSpace=wrap;html=1;" parent="1" vertex="1">
          <mxGeometry x="1220" y="515" width="20" height="20" as="geometry" />
        </mxCell>
        <mxCell id="Rtv8AEi2oojKbHXFzOrV-59" style="edgeStyle=orthogonalEdgeStyle;rounded=0;orthogonalLoop=1;jettySize=auto;html=1;exitX=1;exitY=0.5;exitDx=0;exitDy=0;entryX=0;entryY=0.5;entryDx=0;entryDy=0;" parent="1" source="Rtv8AEi2oojKbHXFzOrV-60" target="Rtv8AEi2oojKbHXFzOrV-62" edge="1">
          <mxGeometry relative="1" as="geometry" />
        </mxCell>
        <mxCell id="Rtv8AEi2oojKbHXFzOrV-60" value="5" style="rounded=0;whiteSpace=wrap;html=1;" parent="1" vertex="1">
          <mxGeometry x="1290" y="480" width="20" height="20" as="geometry" />
        </mxCell>
        <mxCell id="Rtv8AEi2oojKbHXFzOrV-61" style="edgeStyle=orthogonalEdgeStyle;rounded=0;orthogonalLoop=1;jettySize=auto;html=1;exitX=1;exitY=0.5;exitDx=0;exitDy=0;entryX=0;entryY=0.5;entryDx=0;entryDy=0;" parent="1" source="Rtv8AEi2oojKbHXFzOrV-62" target="Rtv8AEi2oojKbHXFzOrV-64" edge="1">
          <mxGeometry relative="1" as="geometry" />
        </mxCell>
        <mxCell id="Rtv8AEi2oojKbHXFzOrV-62" value="6" style="rounded=0;whiteSpace=wrap;html=1;" parent="1" vertex="1">
          <mxGeometry x="1340" y="480" width="20" height="20" as="geometry" />
        </mxCell>
        <mxCell id="Rtv8AEi2oojKbHXFzOrV-63" style="edgeStyle=orthogonalEdgeStyle;rounded=0;orthogonalLoop=1;jettySize=auto;html=1;exitX=1;exitY=0.5;exitDx=0;exitDy=0;entryX=0;entryY=0.5;entryDx=0;entryDy=0;" parent="1" source="Rtv8AEi2oojKbHXFzOrV-64" target="Rtv8AEi2oojKbHXFzOrV-67" edge="1">
          <mxGeometry relative="1" as="geometry">
            <mxPoint x="1440" y="490" as="targetPoint" />
          </mxGeometry>
        </mxCell>
        <mxCell id="Rtv8AEi2oojKbHXFzOrV-64" value="7" style="rounded=0;whiteSpace=wrap;html=1;" parent="1" vertex="1">
          <mxGeometry x="1390" y="480" width="20" height="20" as="geometry" />
        </mxCell>
        <mxCell id="Rtv8AEi2oojKbHXFzOrV-65" value="1" style="rounded=0;whiteSpace=wrap;html=1;strokeColor=none;fillColor=default;" parent="1" vertex="1">
          <mxGeometry x="1490" y="480" width="20" height="20" as="geometry" />
        </mxCell>
        <mxCell id="Rtv8AEi2oojKbHXFzOrV-66" style="edgeStyle=orthogonalEdgeStyle;rounded=0;orthogonalLoop=1;jettySize=auto;html=1;exitX=1;exitY=0.5;exitDx=0;exitDy=0;entryX=0;entryY=0.5;entryDx=0;entryDy=0;" parent="1" source="Rtv8AEi2oojKbHXFzOrV-67" target="Rtv8AEi2oojKbHXFzOrV-65" edge="1">
          <mxGeometry relative="1" as="geometry" />
        </mxCell>
        <mxCell id="Rtv8AEi2oojKbHXFzOrV-67" value="8" style="rounded=0;whiteSpace=wrap;html=1;" parent="1" vertex="1">
          <mxGeometry x="1440" y="480" width="20" height="20" as="geometry" />
        </mxCell>
        <mxCell id="Rtv8AEi2oojKbHXFzOrV-68" style="edgeStyle=orthogonalEdgeStyle;rounded=0;orthogonalLoop=1;jettySize=auto;html=1;exitX=0;exitY=0.5;exitDx=0;exitDy=0;entryX=0;entryY=0.5;entryDx=0;entryDy=0;strokeColor=default;dashed=1;" parent="1" target="Rtv8AEi2oojKbHXFzOrV-70" edge="1">
          <mxGeometry relative="1" as="geometry">
            <mxPoint x="1120" y="490" as="sourcePoint" />
            <Array as="points">
              <mxPoint x="1120" y="540" />
            </Array>
          </mxGeometry>
        </mxCell>
        <mxCell id="Rtv8AEi2oojKbHXFzOrV-69" style="edgeStyle=orthogonalEdgeStyle;rounded=0;orthogonalLoop=1;jettySize=auto;html=1;exitX=1;exitY=0.5;exitDx=0;exitDy=0;dashed=1;" parent="1" source="Rtv8AEi2oojKbHXFzOrV-70" edge="1">
          <mxGeometry relative="1" as="geometry">
            <mxPoint x="1180" y="490" as="targetPoint" />
            <Array as="points">
              <mxPoint x="1180" y="540" />
            </Array>
          </mxGeometry>
        </mxCell>
        <mxCell id="Rtv8AEi2oojKbHXFzOrV-70" value="9" style="rounded=0;whiteSpace=wrap;html=1;" parent="1" vertex="1">
          <mxGeometry x="1140" y="530" width="20" height="20" as="geometry" />
        </mxCell>
        <mxCell id="Rtv8AEi2oojKbHXFzOrV-71" style="edgeStyle=orthogonalEdgeStyle;rounded=0;orthogonalLoop=1;jettySize=auto;html=1;exitX=1;exitY=0.5;exitDx=0;exitDy=0;entryX=0;entryY=0.5;entryDx=0;entryDy=0;" parent="1" source="Rtv8AEi2oojKbHXFzOrV-72" target="Rtv8AEi2oojKbHXFzOrV-74" edge="1">
          <mxGeometry relative="1" as="geometry" />
        </mxCell>
        <mxCell id="Rtv8AEi2oojKbHXFzOrV-72" value="1" style="rounded=0;whiteSpace=wrap;html=1;strokeColor=none;fillColor=default;" parent="1" vertex="1">
          <mxGeometry x="1020" y="590" width="20" height="20" as="geometry" />
        </mxCell>
        <mxCell id="Rtv8AEi2oojKbHXFzOrV-73" style="edgeStyle=orthogonalEdgeStyle;rounded=0;orthogonalLoop=1;jettySize=auto;html=1;exitX=1;exitY=0.5;exitDx=0;exitDy=0;entryX=0;entryY=0.5;entryDx=0;entryDy=0;" parent="1" source="Rtv8AEi2oojKbHXFzOrV-74" target="Rtv8AEi2oojKbHXFzOrV-75" edge="1">
          <mxGeometry relative="1" as="geometry" />
        </mxCell>
        <mxCell id="Rtv8AEi2oojKbHXFzOrV-74" value="1" style="rounded=0;whiteSpace=wrap;html=1;" parent="1" vertex="1">
          <mxGeometry x="1070" y="590" width="20" height="20" as="geometry" />
        </mxCell>
        <mxCell id="Rtv8AEi2oojKbHXFzOrV-75" value="2" style="rounded=0;whiteSpace=wrap;html=1;" parent="1" vertex="1">
          <mxGeometry x="1130" y="590" width="20" height="20" as="geometry" />
        </mxCell>
        <mxCell id="Rtv8AEi2oojKbHXFzOrV-76" style="edgeStyle=orthogonalEdgeStyle;rounded=0;orthogonalLoop=1;jettySize=auto;html=1;exitX=1;exitY=0.5;exitDx=0;exitDy=0;entryX=0;entryY=0.5;entryDx=0;entryDy=0;" parent="1" source="Rtv8AEi2oojKbHXFzOrV-75" target="Rtv8AEi2oojKbHXFzOrV-79" edge="1">
          <mxGeometry relative="1" as="geometry">
            <mxPoint x="1200" y="600" as="sourcePoint" />
            <Array as="points">
              <mxPoint x="1190" y="600" />
              <mxPoint x="1190" y="570" />
            </Array>
          </mxGeometry>
        </mxCell>
        <mxCell id="Rtv8AEi2oojKbHXFzOrV-77" style="edgeStyle=orthogonalEdgeStyle;rounded=0;orthogonalLoop=1;jettySize=auto;html=1;exitX=1;exitY=0.5;exitDx=0;exitDy=0;entryX=0;entryY=0.5;entryDx=0;entryDy=0;" parent="1" source="Rtv8AEi2oojKbHXFzOrV-75" target="Rtv8AEi2oojKbHXFzOrV-81" edge="1">
          <mxGeometry relative="1" as="geometry">
            <mxPoint x="1200" y="600" as="sourcePoint" />
            <Array as="points">
              <mxPoint x="1190" y="600" />
              <mxPoint x="1190" y="630" />
            </Array>
          </mxGeometry>
        </mxCell>
        <mxCell id="Rtv8AEi2oojKbHXFzOrV-78" style="edgeStyle=orthogonalEdgeStyle;rounded=0;orthogonalLoop=1;jettySize=auto;html=1;exitX=1;exitY=0.5;exitDx=0;exitDy=0;entryX=0;entryY=0.5;entryDx=0;entryDy=0;" parent="1" source="Rtv8AEi2oojKbHXFzOrV-79" target="Rtv8AEi2oojKbHXFzOrV-83" edge="1">
          <mxGeometry relative="1" as="geometry">
            <Array as="points">
              <mxPoint x="1260" y="570" />
              <mxPoint x="1260" y="600" />
            </Array>
          </mxGeometry>
        </mxCell>
        <mxCell id="Rtv8AEi2oojKbHXFzOrV-79" value="3" style="rounded=0;whiteSpace=wrap;html=1;" parent="1" vertex="1">
          <mxGeometry x="1210" y="560" width="20" height="20" as="geometry" />
        </mxCell>
        <mxCell id="Rtv8AEi2oojKbHXFzOrV-80" style="edgeStyle=orthogonalEdgeStyle;rounded=0;orthogonalLoop=1;jettySize=auto;html=1;exitX=1;exitY=0.5;exitDx=0;exitDy=0;" parent="1" source="Rtv8AEi2oojKbHXFzOrV-81" edge="1">
          <mxGeometry relative="1" as="geometry">
            <mxPoint x="1280" y="600" as="targetPoint" />
            <Array as="points">
              <mxPoint x="1260" y="630" />
              <mxPoint x="1260" y="600" />
            </Array>
          </mxGeometry>
        </mxCell>
        <mxCell id="Rtv8AEi2oojKbHXFzOrV-81" value="4" style="rounded=0;whiteSpace=wrap;html=1;" parent="1" vertex="1">
          <mxGeometry x="1210" y="620" width="20" height="20" as="geometry" />
        </mxCell>
        <mxCell id="Rtv8AEi2oojKbHXFzOrV-82" style="edgeStyle=orthogonalEdgeStyle;rounded=0;orthogonalLoop=1;jettySize=auto;html=1;exitX=1;exitY=0.5;exitDx=0;exitDy=0;entryX=0;entryY=0.5;entryDx=0;entryDy=0;" parent="1" source="Rtv8AEi2oojKbHXFzOrV-83" target="Rtv8AEi2oojKbHXFzOrV-85" edge="1">
          <mxGeometry relative="1" as="geometry" />
        </mxCell>
        <mxCell id="Rtv8AEi2oojKbHXFzOrV-83" value="5" style="rounded=0;whiteSpace=wrap;html=1;" parent="1" vertex="1">
          <mxGeometry x="1280" y="590" width="20" height="20" as="geometry" />
        </mxCell>
        <mxCell id="Rtv8AEi2oojKbHXFzOrV-84" style="edgeStyle=orthogonalEdgeStyle;rounded=0;orthogonalLoop=1;jettySize=auto;html=1;exitX=1;exitY=0.5;exitDx=0;exitDy=0;entryX=0;entryY=0.5;entryDx=0;entryDy=0;" parent="1" source="Rtv8AEi2oojKbHXFzOrV-85" target="Rtv8AEi2oojKbHXFzOrV-87" edge="1">
          <mxGeometry relative="1" as="geometry" />
        </mxCell>
        <mxCell id="Rtv8AEi2oojKbHXFzOrV-85" value="6" style="rounded=0;whiteSpace=wrap;html=1;" parent="1" vertex="1">
          <mxGeometry x="1330" y="590" width="20" height="20" as="geometry" />
        </mxCell>
        <mxCell id="Rtv8AEi2oojKbHXFzOrV-86" style="edgeStyle=orthogonalEdgeStyle;rounded=0;orthogonalLoop=1;jettySize=auto;html=1;exitX=1;exitY=0.5;exitDx=0;exitDy=0;entryX=0;entryY=0.5;entryDx=0;entryDy=0;" parent="1" source="Rtv8AEi2oojKbHXFzOrV-87" target="Rtv8AEi2oojKbHXFzOrV-90" edge="1">
          <mxGeometry relative="1" as="geometry">
            <mxPoint x="1430" y="600" as="targetPoint" />
          </mxGeometry>
        </mxCell>
        <mxCell id="Rtv8AEi2oojKbHXFzOrV-87" value="7" style="rounded=0;whiteSpace=wrap;html=1;" parent="1" vertex="1">
          <mxGeometry x="1380" y="590" width="20" height="20" as="geometry" />
        </mxCell>
        <mxCell id="Rtv8AEi2oojKbHXFzOrV-88" value="1" style="rounded=0;whiteSpace=wrap;html=1;strokeColor=none;fillColor=default;" parent="1" vertex="1">
          <mxGeometry x="1480" y="590" width="20" height="20" as="geometry" />
        </mxCell>
        <mxCell id="Rtv8AEi2oojKbHXFzOrV-89" style="edgeStyle=orthogonalEdgeStyle;rounded=0;orthogonalLoop=1;jettySize=auto;html=1;exitX=1;exitY=0.5;exitDx=0;exitDy=0;entryX=0;entryY=0.5;entryDx=0;entryDy=0;" parent="1" source="Rtv8AEi2oojKbHXFzOrV-90" target="Rtv8AEi2oojKbHXFzOrV-88" edge="1">
          <mxGeometry relative="1" as="geometry" />
        </mxCell>
        <mxCell id="Rtv8AEi2oojKbHXFzOrV-90" value="8" style="rounded=0;whiteSpace=wrap;html=1;" parent="1" vertex="1">
          <mxGeometry x="1430" y="590" width="20" height="20" as="geometry" />
        </mxCell>
        <mxCell id="Rtv8AEi2oojKbHXFzOrV-91" style="edgeStyle=orthogonalEdgeStyle;rounded=0;orthogonalLoop=1;jettySize=auto;html=1;entryX=0;entryY=0.5;entryDx=0;entryDy=0;strokeColor=default;dashed=1;" parent="1" target="Rtv8AEi2oojKbHXFzOrV-93" edge="1">
          <mxGeometry relative="1" as="geometry">
            <mxPoint x="1190" y="630" as="sourcePoint" />
            <Array as="points">
              <mxPoint x="1190" y="680" />
            </Array>
          </mxGeometry>
        </mxCell>
        <mxCell id="Rtv8AEi2oojKbHXFzOrV-92" style="edgeStyle=orthogonalEdgeStyle;rounded=0;orthogonalLoop=1;jettySize=auto;html=1;exitX=1;exitY=0.5;exitDx=0;exitDy=0;dashed=1;startArrow=none;startFill=0;endArrow=none;endFill=0;" parent="1" source="Rtv8AEi2oojKbHXFzOrV-93" edge="1">
          <mxGeometry relative="1" as="geometry">
            <mxPoint x="1260" y="630" as="targetPoint" />
            <Array as="points">
              <mxPoint x="1260" y="680" />
            </Array>
          </mxGeometry>
        </mxCell>
        <mxCell id="Rtv8AEi2oojKbHXFzOrV-93" value="9" style="rounded=0;whiteSpace=wrap;html=1;" parent="1" vertex="1">
          <mxGeometry x="1210" y="670" width="20" height="20" as="geometry" />
        </mxCell>
        <mxCell id="Rtv8AEi2oojKbHXFzOrV-94" style="edgeStyle=orthogonalEdgeStyle;rounded=0;orthogonalLoop=1;jettySize=auto;html=1;exitX=1;exitY=0.5;exitDx=0;exitDy=0;entryX=0;entryY=0.5;entryDx=0;entryDy=0;" parent="1" source="Rtv8AEi2oojKbHXFzOrV-95" target="Rtv8AEi2oojKbHXFzOrV-97" edge="1">
          <mxGeometry relative="1" as="geometry" />
        </mxCell>
        <mxCell id="Rtv8AEi2oojKbHXFzOrV-95" value="1" style="rounded=0;whiteSpace=wrap;html=1;strokeColor=none;fillColor=default;" parent="1" vertex="1">
          <mxGeometry x="1050" y="750" width="20" height="20" as="geometry" />
        </mxCell>
        <mxCell id="Rtv8AEi2oojKbHXFzOrV-96" style="edgeStyle=orthogonalEdgeStyle;rounded=0;orthogonalLoop=1;jettySize=auto;html=1;exitX=1;exitY=0.5;exitDx=0;exitDy=0;entryX=0;entryY=0.5;entryDx=0;entryDy=0;" parent="1" source="Rtv8AEi2oojKbHXFzOrV-97" target="Rtv8AEi2oojKbHXFzOrV-98" edge="1">
          <mxGeometry relative="1" as="geometry" />
        </mxCell>
        <mxCell id="Rtv8AEi2oojKbHXFzOrV-97" value="1" style="rounded=0;whiteSpace=wrap;html=1;" parent="1" vertex="1">
          <mxGeometry x="1100" y="750" width="20" height="20" as="geometry" />
        </mxCell>
        <mxCell id="Rtv8AEi2oojKbHXFzOrV-98" value="2" style="rounded=0;whiteSpace=wrap;html=1;" parent="1" vertex="1">
          <mxGeometry x="1150" y="750" width="20" height="20" as="geometry" />
        </mxCell>
        <mxCell id="Rtv8AEi2oojKbHXFzOrV-99" style="edgeStyle=orthogonalEdgeStyle;rounded=0;orthogonalLoop=1;jettySize=auto;html=1;exitX=1;exitY=0.5;exitDx=0;exitDy=0;entryX=0;entryY=0.5;entryDx=0;entryDy=0;" parent="1" source="Rtv8AEi2oojKbHXFzOrV-98" target="Rtv8AEi2oojKbHXFzOrV-102" edge="1">
          <mxGeometry relative="1" as="geometry">
            <mxPoint x="1220" y="760" as="sourcePoint" />
            <Array as="points">
              <mxPoint x="1200" y="760" />
              <mxPoint x="1200" y="730" />
            </Array>
          </mxGeometry>
        </mxCell>
        <mxCell id="Rtv8AEi2oojKbHXFzOrV-100" style="edgeStyle=orthogonalEdgeStyle;rounded=0;orthogonalLoop=1;jettySize=auto;html=1;exitX=1;exitY=0.5;exitDx=0;exitDy=0;entryX=0;entryY=0.5;entryDx=0;entryDy=0;" parent="1" source="Rtv8AEi2oojKbHXFzOrV-98" target="Rtv8AEi2oojKbHXFzOrV-104" edge="1">
          <mxGeometry relative="1" as="geometry">
            <mxPoint x="1220" y="760" as="sourcePoint" />
            <Array as="points">
              <mxPoint x="1200" y="760" />
              <mxPoint x="1200" y="795" />
            </Array>
          </mxGeometry>
        </mxCell>
        <mxCell id="Rtv8AEi2oojKbHXFzOrV-101" style="edgeStyle=orthogonalEdgeStyle;rounded=0;orthogonalLoop=1;jettySize=auto;html=1;exitX=1;exitY=0.5;exitDx=0;exitDy=0;entryX=0;entryY=0.5;entryDx=0;entryDy=0;" parent="1" source="Rtv8AEi2oojKbHXFzOrV-102" target="Rtv8AEi2oojKbHXFzOrV-106" edge="1">
          <mxGeometry relative="1" as="geometry">
            <Array as="points">
              <mxPoint x="1270" y="730" />
              <mxPoint x="1270" y="760" />
            </Array>
          </mxGeometry>
        </mxCell>
        <mxCell id="Rtv8AEi2oojKbHXFzOrV-102" value="3" style="rounded=0;whiteSpace=wrap;html=1;" parent="1" vertex="1">
          <mxGeometry x="1220" y="720" width="20" height="20" as="geometry" />
        </mxCell>
        <mxCell id="Rtv8AEi2oojKbHXFzOrV-103" style="edgeStyle=orthogonalEdgeStyle;rounded=0;orthogonalLoop=1;jettySize=auto;html=1;exitX=1;exitY=0.5;exitDx=0;exitDy=0;entryX=0;entryY=0.5;entryDx=0;entryDy=0;" parent="1" source="Rtv8AEi2oojKbHXFzOrV-104" target="Rtv8AEi2oojKbHXFzOrV-106" edge="1">
          <mxGeometry relative="1" as="geometry">
            <mxPoint x="1290" y="760" as="targetPoint" />
            <Array as="points">
              <mxPoint x="1270" y="795" />
              <mxPoint x="1270" y="760" />
            </Array>
          </mxGeometry>
        </mxCell>
        <mxCell id="Rtv8AEi2oojKbHXFzOrV-104" value="4" style="rounded=0;whiteSpace=wrap;html=1;" parent="1" vertex="1">
          <mxGeometry x="1220" y="785" width="20" height="20" as="geometry" />
        </mxCell>
        <mxCell id="Rtv8AEi2oojKbHXFzOrV-105" style="edgeStyle=orthogonalEdgeStyle;rounded=0;orthogonalLoop=1;jettySize=auto;html=1;exitX=1;exitY=0.5;exitDx=0;exitDy=0;entryX=0;entryY=0.5;entryDx=0;entryDy=0;" parent="1" source="Rtv8AEi2oojKbHXFzOrV-106" target="Rtv8AEi2oojKbHXFzOrV-108" edge="1">
          <mxGeometry relative="1" as="geometry" />
        </mxCell>
        <mxCell id="Rtv8AEi2oojKbHXFzOrV-106" value="5" style="rounded=0;whiteSpace=wrap;html=1;" parent="1" vertex="1">
          <mxGeometry x="1310" y="750" width="20" height="20" as="geometry" />
        </mxCell>
        <mxCell id="Rtv8AEi2oojKbHXFzOrV-107" style="edgeStyle=orthogonalEdgeStyle;rounded=0;orthogonalLoop=1;jettySize=auto;html=1;exitX=1;exitY=0.5;exitDx=0;exitDy=0;entryX=0;entryY=0.5;entryDx=0;entryDy=0;" parent="1" source="Rtv8AEi2oojKbHXFzOrV-108" target="Rtv8AEi2oojKbHXFzOrV-110" edge="1">
          <mxGeometry relative="1" as="geometry" />
        </mxCell>
        <mxCell id="Rtv8AEi2oojKbHXFzOrV-108" value="6" style="rounded=0;whiteSpace=wrap;html=1;" parent="1" vertex="1">
          <mxGeometry x="1370" y="750" width="20" height="20" as="geometry" />
        </mxCell>
        <mxCell id="Rtv8AEi2oojKbHXFzOrV-109" style="edgeStyle=orthogonalEdgeStyle;rounded=0;orthogonalLoop=1;jettySize=auto;html=1;exitX=1;exitY=0.5;exitDx=0;exitDy=0;entryX=0;entryY=0.5;entryDx=0;entryDy=0;" parent="1" source="Rtv8AEi2oojKbHXFzOrV-110" target="Rtv8AEi2oojKbHXFzOrV-113" edge="1">
          <mxGeometry relative="1" as="geometry">
            <mxPoint x="1465" y="760" as="targetPoint" />
          </mxGeometry>
        </mxCell>
        <mxCell id="Rtv8AEi2oojKbHXFzOrV-110" value="7" style="rounded=0;whiteSpace=wrap;html=1;" parent="1" vertex="1">
          <mxGeometry x="1420" y="750" width="20" height="20" as="geometry" />
        </mxCell>
        <mxCell id="Rtv8AEi2oojKbHXFzOrV-111" value="1" style="rounded=0;whiteSpace=wrap;html=1;strokeColor=none;fillColor=default;" parent="1" vertex="1">
          <mxGeometry x="1520" y="750" width="20" height="20" as="geometry" />
        </mxCell>
        <mxCell id="Rtv8AEi2oojKbHXFzOrV-112" style="edgeStyle=orthogonalEdgeStyle;rounded=0;orthogonalLoop=1;jettySize=auto;html=1;exitX=1;exitY=0.5;exitDx=0;exitDy=0;entryX=0;entryY=0.5;entryDx=0;entryDy=0;" parent="1" source="Rtv8AEi2oojKbHXFzOrV-113" target="Rtv8AEi2oojKbHXFzOrV-111" edge="1">
          <mxGeometry relative="1" as="geometry" />
        </mxCell>
        <mxCell id="Rtv8AEi2oojKbHXFzOrV-113" value="8" style="rounded=0;whiteSpace=wrap;html=1;" parent="1" vertex="1">
          <mxGeometry x="1470" y="750" width="20" height="20" as="geometry" />
        </mxCell>
        <mxCell id="Rtv8AEi2oojKbHXFzOrV-114" style="edgeStyle=orthogonalEdgeStyle;rounded=0;orthogonalLoop=1;jettySize=auto;html=1;exitX=0;exitY=0.5;exitDx=0;exitDy=0;entryX=0;entryY=0.5;entryDx=0;entryDy=0;strokeColor=default;dashed=1;" parent="1" target="Rtv8AEi2oojKbHXFzOrV-116" edge="1">
          <mxGeometry relative="1" as="geometry">
            <mxPoint x="1290" y="760" as="sourcePoint" />
            <Array as="points">
              <mxPoint x="1290" y="810" />
            </Array>
          </mxGeometry>
        </mxCell>
        <mxCell id="Rtv8AEi2oojKbHXFzOrV-115" style="edgeStyle=orthogonalEdgeStyle;rounded=0;orthogonalLoop=1;jettySize=auto;html=1;exitX=1;exitY=0.5;exitDx=0;exitDy=0;dashed=1;" parent="1" source="Rtv8AEi2oojKbHXFzOrV-116" edge="1">
          <mxGeometry relative="1" as="geometry">
            <mxPoint x="1350" y="760" as="targetPoint" />
            <Array as="points">
              <mxPoint x="1350" y="810" />
            </Array>
          </mxGeometry>
        </mxCell>
        <mxCell id="Rtv8AEi2oojKbHXFzOrV-116" value="9" style="rounded=0;whiteSpace=wrap;html=1;" parent="1" vertex="1">
          <mxGeometry x="1310" y="800" width="20" height="20" as="geometry" />
        </mxCell>
        <mxCell id="Rtv8AEi2oojKbHXFzOrV-117" style="edgeStyle=orthogonalEdgeStyle;rounded=0;orthogonalLoop=1;jettySize=auto;html=1;exitX=1;exitY=0.5;exitDx=0;exitDy=0;entryX=0;entryY=0.5;entryDx=0;entryDy=0;" parent="1" source="Rtv8AEi2oojKbHXFzOrV-118" target="Rtv8AEi2oojKbHXFzOrV-120" edge="1">
          <mxGeometry relative="1" as="geometry" />
        </mxCell>
        <mxCell id="Rtv8AEi2oojKbHXFzOrV-118" value="1" style="rounded=0;whiteSpace=wrap;html=1;strokeColor=none;fillColor=default;" parent="1" vertex="1">
          <mxGeometry x="1050" y="880" width="20" height="20" as="geometry" />
        </mxCell>
        <mxCell id="Rtv8AEi2oojKbHXFzOrV-119" style="edgeStyle=orthogonalEdgeStyle;rounded=0;orthogonalLoop=1;jettySize=auto;html=1;exitX=1;exitY=0.5;exitDx=0;exitDy=0;entryX=0;entryY=0.5;entryDx=0;entryDy=0;" parent="1" source="Rtv8AEi2oojKbHXFzOrV-120" target="Rtv8AEi2oojKbHXFzOrV-121" edge="1">
          <mxGeometry relative="1" as="geometry" />
        </mxCell>
        <mxCell id="Rtv8AEi2oojKbHXFzOrV-120" value="1" style="rounded=0;whiteSpace=wrap;html=1;" parent="1" vertex="1">
          <mxGeometry x="1100" y="880" width="20" height="20" as="geometry" />
        </mxCell>
        <mxCell id="Rtv8AEi2oojKbHXFzOrV-121" value="2" style="rounded=0;whiteSpace=wrap;html=1;" parent="1" vertex="1">
          <mxGeometry x="1150" y="880" width="20" height="20" as="geometry" />
        </mxCell>
        <mxCell id="Rtv8AEi2oojKbHXFzOrV-122" style="edgeStyle=orthogonalEdgeStyle;rounded=0;orthogonalLoop=1;jettySize=auto;html=1;exitX=1;exitY=0.5;exitDx=0;exitDy=0;entryX=0;entryY=0.5;entryDx=0;entryDy=0;" parent="1" source="Rtv8AEi2oojKbHXFzOrV-121" target="Rtv8AEi2oojKbHXFzOrV-125" edge="1">
          <mxGeometry relative="1" as="geometry">
            <mxPoint x="1220" y="890" as="sourcePoint" />
            <Array as="points">
              <mxPoint x="1200" y="890" />
              <mxPoint x="1200" y="860" />
            </Array>
          </mxGeometry>
        </mxCell>
        <mxCell id="Rtv8AEi2oojKbHXFzOrV-123" style="edgeStyle=orthogonalEdgeStyle;rounded=0;orthogonalLoop=1;jettySize=auto;html=1;exitX=1;exitY=0.5;exitDx=0;exitDy=0;entryX=0;entryY=0.5;entryDx=0;entryDy=0;" parent="1" source="Rtv8AEi2oojKbHXFzOrV-121" target="Rtv8AEi2oojKbHXFzOrV-127" edge="1">
          <mxGeometry relative="1" as="geometry">
            <mxPoint x="1220" y="890" as="sourcePoint" />
            <Array as="points">
              <mxPoint x="1200" y="890" />
              <mxPoint x="1200" y="925" />
            </Array>
          </mxGeometry>
        </mxCell>
        <mxCell id="Rtv8AEi2oojKbHXFzOrV-124" style="edgeStyle=orthogonalEdgeStyle;rounded=0;orthogonalLoop=1;jettySize=auto;html=1;exitX=1;exitY=0.5;exitDx=0;exitDy=0;entryX=0;entryY=0.5;entryDx=0;entryDy=0;" parent="1" source="Rtv8AEi2oojKbHXFzOrV-125" target="Rtv8AEi2oojKbHXFzOrV-129" edge="1">
          <mxGeometry relative="1" as="geometry">
            <Array as="points">
              <mxPoint x="1270" y="860" />
              <mxPoint x="1270" y="890" />
            </Array>
          </mxGeometry>
        </mxCell>
        <mxCell id="Rtv8AEi2oojKbHXFzOrV-125" value="3" style="rounded=0;whiteSpace=wrap;html=1;" parent="1" vertex="1">
          <mxGeometry x="1220" y="850" width="20" height="20" as="geometry" />
        </mxCell>
        <mxCell id="Rtv8AEi2oojKbHXFzOrV-126" style="edgeStyle=orthogonalEdgeStyle;rounded=0;orthogonalLoop=1;jettySize=auto;html=1;exitX=1;exitY=0.5;exitDx=0;exitDy=0;entryX=0;entryY=0.5;entryDx=0;entryDy=0;" parent="1" source="Rtv8AEi2oojKbHXFzOrV-127" target="Rtv8AEi2oojKbHXFzOrV-129" edge="1">
          <mxGeometry relative="1" as="geometry">
            <mxPoint x="1290" y="890" as="targetPoint" />
            <Array as="points">
              <mxPoint x="1270" y="925" />
              <mxPoint x="1270" y="890" />
            </Array>
          </mxGeometry>
        </mxCell>
        <mxCell id="Rtv8AEi2oojKbHXFzOrV-127" value="4" style="rounded=0;whiteSpace=wrap;html=1;" parent="1" vertex="1">
          <mxGeometry x="1220" y="915" width="20" height="20" as="geometry" />
        </mxCell>
        <mxCell id="Rtv8AEi2oojKbHXFzOrV-128" style="edgeStyle=orthogonalEdgeStyle;rounded=0;orthogonalLoop=1;jettySize=auto;html=1;exitX=1;exitY=0.5;exitDx=0;exitDy=0;entryX=0;entryY=0.5;entryDx=0;entryDy=0;" parent="1" source="Rtv8AEi2oojKbHXFzOrV-129" target="Rtv8AEi2oojKbHXFzOrV-131" edge="1">
          <mxGeometry relative="1" as="geometry" />
        </mxCell>
        <mxCell id="Rtv8AEi2oojKbHXFzOrV-129" value="5" style="rounded=0;whiteSpace=wrap;html=1;" parent="1" vertex="1">
          <mxGeometry x="1300" y="880" width="20" height="20" as="geometry" />
        </mxCell>
        <mxCell id="Rtv8AEi2oojKbHXFzOrV-130" style="edgeStyle=orthogonalEdgeStyle;rounded=0;orthogonalLoop=1;jettySize=auto;html=1;exitX=1;exitY=0.5;exitDx=0;exitDy=0;entryX=0;entryY=0.5;entryDx=0;entryDy=0;" parent="1" source="Rtv8AEi2oojKbHXFzOrV-131" target="Rtv8AEi2oojKbHXFzOrV-133" edge="1">
          <mxGeometry relative="1" as="geometry" />
        </mxCell>
        <mxCell id="Rtv8AEi2oojKbHXFzOrV-131" value="6" style="rounded=0;whiteSpace=wrap;html=1;" parent="1" vertex="1">
          <mxGeometry x="1360" y="880" width="20" height="20" as="geometry" />
        </mxCell>
        <mxCell id="Rtv8AEi2oojKbHXFzOrV-132" style="edgeStyle=orthogonalEdgeStyle;rounded=0;orthogonalLoop=1;jettySize=auto;html=1;exitX=1;exitY=0.5;exitDx=0;exitDy=0;entryX=0;entryY=0.5;entryDx=0;entryDy=0;" parent="1" source="Rtv8AEi2oojKbHXFzOrV-133" target="Rtv8AEi2oojKbHXFzOrV-136" edge="1">
          <mxGeometry relative="1" as="geometry">
            <mxPoint x="1465" y="890" as="targetPoint" />
          </mxGeometry>
        </mxCell>
        <mxCell id="Rtv8AEi2oojKbHXFzOrV-133" value="7" style="rounded=0;whiteSpace=wrap;html=1;" parent="1" vertex="1">
          <mxGeometry x="1420" y="880" width="20" height="20" as="geometry" />
        </mxCell>
        <mxCell id="Rtv8AEi2oojKbHXFzOrV-134" value="1" style="rounded=0;whiteSpace=wrap;html=1;strokeColor=none;fillColor=default;" parent="1" vertex="1">
          <mxGeometry x="1520" y="880" width="20" height="20" as="geometry" />
        </mxCell>
        <mxCell id="Rtv8AEi2oojKbHXFzOrV-135" style="edgeStyle=orthogonalEdgeStyle;rounded=0;orthogonalLoop=1;jettySize=auto;html=1;exitX=1;exitY=0.5;exitDx=0;exitDy=0;entryX=0;entryY=0.5;entryDx=0;entryDy=0;" parent="1" source="Rtv8AEi2oojKbHXFzOrV-136" target="Rtv8AEi2oojKbHXFzOrV-134" edge="1">
          <mxGeometry relative="1" as="geometry" />
        </mxCell>
        <mxCell id="Rtv8AEi2oojKbHXFzOrV-136" value="8" style="rounded=0;whiteSpace=wrap;html=1;" parent="1" vertex="1">
          <mxGeometry x="1470" y="880" width="20" height="20" as="geometry" />
        </mxCell>
        <mxCell id="Rtv8AEi2oojKbHXFzOrV-137" style="edgeStyle=orthogonalEdgeStyle;rounded=0;orthogonalLoop=1;jettySize=auto;html=1;exitX=0;exitY=0.5;exitDx=0;exitDy=0;entryX=0;entryY=0.5;entryDx=0;entryDy=0;strokeColor=default;dashed=1;" parent="1" target="Rtv8AEi2oojKbHXFzOrV-139" edge="1">
          <mxGeometry relative="1" as="geometry">
            <mxPoint x="1340" y="890" as="sourcePoint" />
            <Array as="points">
              <mxPoint x="1340" y="940" />
            </Array>
          </mxGeometry>
        </mxCell>
        <mxCell id="Rtv8AEi2oojKbHXFzOrV-138" style="edgeStyle=orthogonalEdgeStyle;rounded=0;orthogonalLoop=1;jettySize=auto;html=1;exitX=1;exitY=0.5;exitDx=0;exitDy=0;dashed=1;" parent="1" source="Rtv8AEi2oojKbHXFzOrV-139" edge="1">
          <mxGeometry relative="1" as="geometry">
            <mxPoint x="1400" y="890" as="targetPoint" />
            <Array as="points">
              <mxPoint x="1400" y="940" />
            </Array>
          </mxGeometry>
        </mxCell>
        <mxCell id="Rtv8AEi2oojKbHXFzOrV-139" value="9" style="rounded=0;whiteSpace=wrap;html=1;" parent="1" vertex="1">
          <mxGeometry x="1360" y="930" width="20" height="20" as="geometry" />
        </mxCell>
        <mxCell id="Rtv8AEi2oojKbHXFzOrV-140" style="edgeStyle=orthogonalEdgeStyle;rounded=0;orthogonalLoop=1;jettySize=auto;html=1;exitX=1;exitY=0.5;exitDx=0;exitDy=0;entryX=0;entryY=0.5;entryDx=0;entryDy=0;" parent="1" source="Rtv8AEi2oojKbHXFzOrV-141" target="Rtv8AEi2oojKbHXFzOrV-143" edge="1">
          <mxGeometry relative="1" as="geometry" />
        </mxCell>
        <mxCell id="Rtv8AEi2oojKbHXFzOrV-141" value="1" style="rounded=0;whiteSpace=wrap;html=1;strokeColor=none;fillColor=default;" parent="1" vertex="1">
          <mxGeometry x="1050" y="1000" width="20" height="20" as="geometry" />
        </mxCell>
        <mxCell id="Rtv8AEi2oojKbHXFzOrV-142" style="edgeStyle=orthogonalEdgeStyle;rounded=0;orthogonalLoop=1;jettySize=auto;html=1;exitX=1;exitY=0.5;exitDx=0;exitDy=0;entryX=0;entryY=0.5;entryDx=0;entryDy=0;" parent="1" source="Rtv8AEi2oojKbHXFzOrV-143" target="Rtv8AEi2oojKbHXFzOrV-144" edge="1">
          <mxGeometry relative="1" as="geometry" />
        </mxCell>
        <mxCell id="Rtv8AEi2oojKbHXFzOrV-143" value="1" style="rounded=0;whiteSpace=wrap;html=1;" parent="1" vertex="1">
          <mxGeometry x="1100" y="1000" width="20" height="20" as="geometry" />
        </mxCell>
        <mxCell id="Rtv8AEi2oojKbHXFzOrV-144" value="2" style="rounded=0;whiteSpace=wrap;html=1;" parent="1" vertex="1">
          <mxGeometry x="1150" y="1000" width="20" height="20" as="geometry" />
        </mxCell>
        <mxCell id="Rtv8AEi2oojKbHXFzOrV-145" style="edgeStyle=orthogonalEdgeStyle;rounded=0;orthogonalLoop=1;jettySize=auto;html=1;exitX=1;exitY=0.5;exitDx=0;exitDy=0;entryX=0;entryY=0.5;entryDx=0;entryDy=0;" parent="1" source="Rtv8AEi2oojKbHXFzOrV-144" target="Rtv8AEi2oojKbHXFzOrV-148" edge="1">
          <mxGeometry relative="1" as="geometry">
            <mxPoint x="1220" y="1010" as="sourcePoint" />
            <Array as="points">
              <mxPoint x="1200" y="1010" />
              <mxPoint x="1200" y="980" />
            </Array>
          </mxGeometry>
        </mxCell>
        <mxCell id="Rtv8AEi2oojKbHXFzOrV-146" style="edgeStyle=orthogonalEdgeStyle;rounded=0;orthogonalLoop=1;jettySize=auto;html=1;exitX=1;exitY=0.5;exitDx=0;exitDy=0;entryX=0;entryY=0.5;entryDx=0;entryDy=0;" parent="1" source="Rtv8AEi2oojKbHXFzOrV-144" target="Rtv8AEi2oojKbHXFzOrV-150" edge="1">
          <mxGeometry relative="1" as="geometry">
            <mxPoint x="1220" y="1010" as="sourcePoint" />
            <Array as="points">
              <mxPoint x="1200" y="1010" />
              <mxPoint x="1200" y="1045" />
            </Array>
          </mxGeometry>
        </mxCell>
        <mxCell id="Rtv8AEi2oojKbHXFzOrV-147" style="edgeStyle=orthogonalEdgeStyle;rounded=0;orthogonalLoop=1;jettySize=auto;html=1;exitX=1;exitY=0.5;exitDx=0;exitDy=0;entryX=0;entryY=0.5;entryDx=0;entryDy=0;" parent="1" source="Rtv8AEi2oojKbHXFzOrV-148" target="Rtv8AEi2oojKbHXFzOrV-152" edge="1">
          <mxGeometry relative="1" as="geometry">
            <Array as="points">
              <mxPoint x="1270" y="980" />
              <mxPoint x="1270" y="1010" />
            </Array>
          </mxGeometry>
        </mxCell>
        <mxCell id="Rtv8AEi2oojKbHXFzOrV-148" value="3" style="rounded=0;whiteSpace=wrap;html=1;" parent="1" vertex="1">
          <mxGeometry x="1220" y="970" width="20" height="20" as="geometry" />
        </mxCell>
        <mxCell id="Rtv8AEi2oojKbHXFzOrV-149" style="edgeStyle=orthogonalEdgeStyle;rounded=0;orthogonalLoop=1;jettySize=auto;html=1;exitX=1;exitY=0.5;exitDx=0;exitDy=0;entryX=0;entryY=0.5;entryDx=0;entryDy=0;" parent="1" source="Rtv8AEi2oojKbHXFzOrV-150" target="Rtv8AEi2oojKbHXFzOrV-152" edge="1">
          <mxGeometry relative="1" as="geometry">
            <mxPoint x="1290" y="1010" as="targetPoint" />
            <Array as="points">
              <mxPoint x="1270" y="1045" />
              <mxPoint x="1270" y="1010" />
            </Array>
          </mxGeometry>
        </mxCell>
        <mxCell id="Rtv8AEi2oojKbHXFzOrV-150" value="4" style="rounded=0;whiteSpace=wrap;html=1;" parent="1" vertex="1">
          <mxGeometry x="1220" y="1035" width="20" height="20" as="geometry" />
        </mxCell>
        <mxCell id="Rtv8AEi2oojKbHXFzOrV-151" style="edgeStyle=orthogonalEdgeStyle;rounded=0;orthogonalLoop=1;jettySize=auto;html=1;exitX=1;exitY=0.5;exitDx=0;exitDy=0;entryX=0;entryY=0.5;entryDx=0;entryDy=0;" parent="1" source="Rtv8AEi2oojKbHXFzOrV-152" target="Rtv8AEi2oojKbHXFzOrV-154" edge="1">
          <mxGeometry relative="1" as="geometry" />
        </mxCell>
        <mxCell id="Rtv8AEi2oojKbHXFzOrV-152" value="5" style="rounded=0;whiteSpace=wrap;html=1;" parent="1" vertex="1">
          <mxGeometry x="1300" y="1000" width="20" height="20" as="geometry" />
        </mxCell>
        <mxCell id="Rtv8AEi2oojKbHXFzOrV-153" style="edgeStyle=orthogonalEdgeStyle;rounded=0;orthogonalLoop=1;jettySize=auto;html=1;exitX=1;exitY=0.5;exitDx=0;exitDy=0;entryX=0;entryY=0.5;entryDx=0;entryDy=0;" parent="1" source="Rtv8AEi2oojKbHXFzOrV-154" target="Rtv8AEi2oojKbHXFzOrV-156" edge="1">
          <mxGeometry relative="1" as="geometry" />
        </mxCell>
        <mxCell id="Rtv8AEi2oojKbHXFzOrV-154" value="6" style="rounded=0;whiteSpace=wrap;html=1;" parent="1" vertex="1">
          <mxGeometry x="1350" y="1000" width="20" height="20" as="geometry" />
        </mxCell>
        <mxCell id="Rtv8AEi2oojKbHXFzOrV-155" style="edgeStyle=orthogonalEdgeStyle;rounded=0;orthogonalLoop=1;jettySize=auto;html=1;exitX=1;exitY=0.5;exitDx=0;exitDy=0;entryX=0;entryY=0.5;entryDx=0;entryDy=0;" parent="1" source="Rtv8AEi2oojKbHXFzOrV-156" target="Rtv8AEi2oojKbHXFzOrV-159" edge="1">
          <mxGeometry relative="1" as="geometry">
            <mxPoint x="1465" y="1010" as="targetPoint" />
          </mxGeometry>
        </mxCell>
        <mxCell id="Rtv8AEi2oojKbHXFzOrV-156" value="7" style="rounded=0;whiteSpace=wrap;html=1;" parent="1" vertex="1">
          <mxGeometry x="1410" y="1000" width="20" height="20" as="geometry" />
        </mxCell>
        <mxCell id="Rtv8AEi2oojKbHXFzOrV-157" value="1" style="rounded=0;whiteSpace=wrap;html=1;strokeColor=none;fillColor=default;" parent="1" vertex="1">
          <mxGeometry x="1520" y="1000" width="20" height="20" as="geometry" />
        </mxCell>
        <mxCell id="Rtv8AEi2oojKbHXFzOrV-158" style="edgeStyle=orthogonalEdgeStyle;rounded=0;orthogonalLoop=1;jettySize=auto;html=1;exitX=1;exitY=0.5;exitDx=0;exitDy=0;entryX=0;entryY=0.5;entryDx=0;entryDy=0;" parent="1" source="Rtv8AEi2oojKbHXFzOrV-159" target="Rtv8AEi2oojKbHXFzOrV-157" edge="1">
          <mxGeometry relative="1" as="geometry" />
        </mxCell>
        <mxCell id="Rtv8AEi2oojKbHXFzOrV-159" value="8" style="rounded=0;whiteSpace=wrap;html=1;" parent="1" vertex="1">
          <mxGeometry x="1470" y="1000" width="20" height="20" as="geometry" />
        </mxCell>
        <mxCell id="Rtv8AEi2oojKbHXFzOrV-160" style="edgeStyle=orthogonalEdgeStyle;rounded=0;orthogonalLoop=1;jettySize=auto;html=1;exitX=0;exitY=0.5;exitDx=0;exitDy=0;entryX=0;entryY=0.5;entryDx=0;entryDy=0;strokeColor=default;dashed=1;" parent="1" target="Rtv8AEi2oojKbHXFzOrV-162" edge="1">
          <mxGeometry relative="1" as="geometry">
            <mxPoint x="1390" y="1010" as="sourcePoint" />
            <Array as="points">
              <mxPoint x="1390" y="1060" />
            </Array>
          </mxGeometry>
        </mxCell>
        <mxCell id="Rtv8AEi2oojKbHXFzOrV-161" style="edgeStyle=orthogonalEdgeStyle;rounded=0;orthogonalLoop=1;jettySize=auto;html=1;exitX=1;exitY=0.5;exitDx=0;exitDy=0;dashed=1;" parent="1" source="Rtv8AEi2oojKbHXFzOrV-162" edge="1">
          <mxGeometry relative="1" as="geometry">
            <mxPoint x="1450" y="1010" as="targetPoint" />
            <Array as="points">
              <mxPoint x="1450" y="1060" />
            </Array>
          </mxGeometry>
        </mxCell>
        <mxCell id="Rtv8AEi2oojKbHXFzOrV-162" value="9" style="rounded=0;whiteSpace=wrap;html=1;" parent="1" vertex="1">
          <mxGeometry x="1410" y="1050" width="20" height="20" as="geometry" />
        </mxCell>
        <mxCell id="Rtv8AEi2oojKbHXFzOrV-163" style="edgeStyle=orthogonalEdgeStyle;rounded=0;orthogonalLoop=1;jettySize=auto;html=1;exitX=1;exitY=0.5;exitDx=0;exitDy=0;entryX=0;entryY=0.5;entryDx=0;entryDy=0;" parent="1" source="Rtv8AEi2oojKbHXFzOrV-164" target="Rtv8AEi2oojKbHXFzOrV-166" edge="1">
          <mxGeometry relative="1" as="geometry" />
        </mxCell>
        <mxCell id="Rtv8AEi2oojKbHXFzOrV-164" value="1" style="rounded=0;whiteSpace=wrap;html=1;strokeColor=none;fillColor=default;" parent="1" vertex="1">
          <mxGeometry x="1060" y="1120" width="20" height="20" as="geometry" />
        </mxCell>
        <mxCell id="Rtv8AEi2oojKbHXFzOrV-165" style="edgeStyle=orthogonalEdgeStyle;rounded=0;orthogonalLoop=1;jettySize=auto;html=1;exitX=1;exitY=0.5;exitDx=0;exitDy=0;entryX=0;entryY=0.5;entryDx=0;entryDy=0;" parent="1" source="Rtv8AEi2oojKbHXFzOrV-166" target="Rtv8AEi2oojKbHXFzOrV-167" edge="1">
          <mxGeometry relative="1" as="geometry" />
        </mxCell>
        <mxCell id="Rtv8AEi2oojKbHXFzOrV-166" value="1" style="rounded=0;whiteSpace=wrap;html=1;" parent="1" vertex="1">
          <mxGeometry x="1110" y="1120" width="20" height="20" as="geometry" />
        </mxCell>
        <mxCell id="Rtv8AEi2oojKbHXFzOrV-167" value="2" style="rounded=0;whiteSpace=wrap;html=1;" parent="1" vertex="1">
          <mxGeometry x="1160" y="1120" width="20" height="20" as="geometry" />
        </mxCell>
        <mxCell id="Rtv8AEi2oojKbHXFzOrV-168" style="edgeStyle=orthogonalEdgeStyle;rounded=0;orthogonalLoop=1;jettySize=auto;html=1;exitX=1;exitY=0.5;exitDx=0;exitDy=0;entryX=0;entryY=0.5;entryDx=0;entryDy=0;" parent="1" source="Rtv8AEi2oojKbHXFzOrV-167" target="Rtv8AEi2oojKbHXFzOrV-171" edge="1">
          <mxGeometry relative="1" as="geometry">
            <mxPoint x="1230" y="1130" as="sourcePoint" />
            <Array as="points">
              <mxPoint x="1210" y="1130" />
              <mxPoint x="1210" y="1100" />
            </Array>
          </mxGeometry>
        </mxCell>
        <mxCell id="Rtv8AEi2oojKbHXFzOrV-169" style="edgeStyle=orthogonalEdgeStyle;rounded=0;orthogonalLoop=1;jettySize=auto;html=1;exitX=1;exitY=0.5;exitDx=0;exitDy=0;entryX=0;entryY=0.5;entryDx=0;entryDy=0;" parent="1" source="Rtv8AEi2oojKbHXFzOrV-167" target="Rtv8AEi2oojKbHXFzOrV-173" edge="1">
          <mxGeometry relative="1" as="geometry">
            <mxPoint x="1230" y="1130" as="sourcePoint" />
            <Array as="points">
              <mxPoint x="1210" y="1130" />
              <mxPoint x="1210" y="1165" />
            </Array>
          </mxGeometry>
        </mxCell>
        <mxCell id="Rtv8AEi2oojKbHXFzOrV-170" style="edgeStyle=orthogonalEdgeStyle;rounded=0;orthogonalLoop=1;jettySize=auto;html=1;exitX=1;exitY=0.5;exitDx=0;exitDy=0;entryX=0;entryY=0.5;entryDx=0;entryDy=0;" parent="1" source="Rtv8AEi2oojKbHXFzOrV-171" target="Rtv8AEi2oojKbHXFzOrV-175" edge="1">
          <mxGeometry relative="1" as="geometry">
            <Array as="points">
              <mxPoint x="1280" y="1100" />
              <mxPoint x="1280" y="1130" />
            </Array>
          </mxGeometry>
        </mxCell>
        <mxCell id="Rtv8AEi2oojKbHXFzOrV-171" value="3" style="rounded=0;whiteSpace=wrap;html=1;" parent="1" vertex="1">
          <mxGeometry x="1230" y="1090" width="20" height="20" as="geometry" />
        </mxCell>
        <mxCell id="Rtv8AEi2oojKbHXFzOrV-172" style="edgeStyle=orthogonalEdgeStyle;rounded=0;orthogonalLoop=1;jettySize=auto;html=1;exitX=1;exitY=0.5;exitDx=0;exitDy=0;entryX=0;entryY=0.5;entryDx=0;entryDy=0;" parent="1" source="Rtv8AEi2oojKbHXFzOrV-173" target="Rtv8AEi2oojKbHXFzOrV-175" edge="1">
          <mxGeometry relative="1" as="geometry">
            <mxPoint x="1300" y="1130" as="targetPoint" />
            <Array as="points">
              <mxPoint x="1280" y="1165" />
              <mxPoint x="1280" y="1130" />
            </Array>
          </mxGeometry>
        </mxCell>
        <mxCell id="Rtv8AEi2oojKbHXFzOrV-173" value="4" style="rounded=0;whiteSpace=wrap;html=1;" parent="1" vertex="1">
          <mxGeometry x="1230" y="1155" width="20" height="20" as="geometry" />
        </mxCell>
        <mxCell id="Rtv8AEi2oojKbHXFzOrV-174" style="edgeStyle=orthogonalEdgeStyle;rounded=0;orthogonalLoop=1;jettySize=auto;html=1;exitX=1;exitY=0.5;exitDx=0;exitDy=0;entryX=0;entryY=0.5;entryDx=0;entryDy=0;" parent="1" source="Rtv8AEi2oojKbHXFzOrV-175" target="Rtv8AEi2oojKbHXFzOrV-177" edge="1">
          <mxGeometry relative="1" as="geometry" />
        </mxCell>
        <mxCell id="Rtv8AEi2oojKbHXFzOrV-175" value="5" style="rounded=0;whiteSpace=wrap;html=1;" parent="1" vertex="1">
          <mxGeometry x="1310" y="1120" width="20" height="20" as="geometry" />
        </mxCell>
        <mxCell id="Rtv8AEi2oojKbHXFzOrV-176" style="edgeStyle=orthogonalEdgeStyle;rounded=0;orthogonalLoop=1;jettySize=auto;html=1;exitX=1;exitY=0.5;exitDx=0;exitDy=0;entryX=0;entryY=0.5;entryDx=0;entryDy=0;" parent="1" source="Rtv8AEi2oojKbHXFzOrV-177" target="Rtv8AEi2oojKbHXFzOrV-179" edge="1">
          <mxGeometry relative="1" as="geometry" />
        </mxCell>
        <mxCell id="Rtv8AEi2oojKbHXFzOrV-177" value="6" style="rounded=0;whiteSpace=wrap;html=1;" parent="1" vertex="1">
          <mxGeometry x="1360" y="1120" width="20" height="20" as="geometry" />
        </mxCell>
        <mxCell id="Rtv8AEi2oojKbHXFzOrV-178" style="edgeStyle=orthogonalEdgeStyle;rounded=0;orthogonalLoop=1;jettySize=auto;html=1;exitX=1;exitY=0.5;exitDx=0;exitDy=0;entryX=0;entryY=0.5;entryDx=0;entryDy=0;" parent="1" source="Rtv8AEi2oojKbHXFzOrV-179" target="Rtv8AEi2oojKbHXFzOrV-182" edge="1">
          <mxGeometry relative="1" as="geometry">
            <mxPoint x="1475" y="1130" as="targetPoint" />
          </mxGeometry>
        </mxCell>
        <mxCell id="Rtv8AEi2oojKbHXFzOrV-179" value="7" style="rounded=0;whiteSpace=wrap;html=1;" parent="1" vertex="1">
          <mxGeometry x="1410" y="1120" width="20" height="20" as="geometry" />
        </mxCell>
        <mxCell id="Rtv8AEi2oojKbHXFzOrV-180" value="1" style="rounded=0;whiteSpace=wrap;html=1;strokeColor=none;fillColor=default;" parent="1" vertex="1">
          <mxGeometry x="1520" y="1120" width="20" height="20" as="geometry" />
        </mxCell>
        <mxCell id="Rtv8AEi2oojKbHXFzOrV-181" style="edgeStyle=orthogonalEdgeStyle;rounded=0;orthogonalLoop=1;jettySize=auto;html=1;exitX=1;exitY=0.5;exitDx=0;exitDy=0;entryX=0;entryY=0.5;entryDx=0;entryDy=0;" parent="1" source="Rtv8AEi2oojKbHXFzOrV-182" target="Rtv8AEi2oojKbHXFzOrV-180" edge="1">
          <mxGeometry relative="1" as="geometry" />
        </mxCell>
        <mxCell id="Rtv8AEi2oojKbHXFzOrV-182" value="8" style="rounded=0;whiteSpace=wrap;html=1;" parent="1" vertex="1">
          <mxGeometry x="1460" y="1120" width="20" height="20" as="geometry" />
        </mxCell>
        <mxCell id="Rtv8AEi2oojKbHXFzOrV-183" style="edgeStyle=orthogonalEdgeStyle;rounded=0;orthogonalLoop=1;jettySize=auto;html=1;exitX=0;exitY=0.5;exitDx=0;exitDy=0;entryX=0;entryY=0.5;entryDx=0;entryDy=0;strokeColor=default;dashed=1;" parent="1" target="Rtv8AEi2oojKbHXFzOrV-185" edge="1">
          <mxGeometry relative="1" as="geometry">
            <mxPoint x="1440" y="1130" as="sourcePoint" />
            <Array as="points">
              <mxPoint x="1440" y="1180" />
            </Array>
          </mxGeometry>
        </mxCell>
        <mxCell id="Rtv8AEi2oojKbHXFzOrV-184" style="edgeStyle=orthogonalEdgeStyle;rounded=0;orthogonalLoop=1;jettySize=auto;html=1;exitX=1;exitY=0.5;exitDx=0;exitDy=0;dashed=1;" parent="1" source="Rtv8AEi2oojKbHXFzOrV-185" edge="1">
          <mxGeometry relative="1" as="geometry">
            <mxPoint x="1500" y="1130" as="targetPoint" />
            <Array as="points">
              <mxPoint x="1500" y="1180" />
            </Array>
          </mxGeometry>
        </mxCell>
        <mxCell id="Rtv8AEi2oojKbHXFzOrV-185" value="9" style="rounded=0;whiteSpace=wrap;html=1;" parent="1" vertex="1">
          <mxGeometry x="1460" y="1170" width="20" height="20" as="geometry" />
        </mxCell>
        <mxCell id="120g7Sf-2aDO3MHEND-O-29" style="edgeStyle=orthogonalEdgeStyle;rounded=0;orthogonalLoop=1;jettySize=auto;html=1;exitX=0.5;exitY=1;exitDx=0;exitDy=0;entryX=0.25;entryY=0;entryDx=0;entryDy=0;" parent="1" source="120g7Sf-2aDO3MHEND-O-2" target="120g7Sf-2aDO3MHEND-O-14" edge="1">
          <mxGeometry relative="1" as="geometry">
            <Array as="points">
              <mxPoint x="650" y="620" />
              <mxPoint x="555" y="620" />
            </Array>
          </mxGeometry>
        </mxCell>
        <mxCell id="120g7Sf-2aDO3MHEND-O-30" style="edgeStyle=orthogonalEdgeStyle;rounded=0;orthogonalLoop=1;jettySize=auto;html=1;exitX=0.5;exitY=1;exitDx=0;exitDy=0;entryX=0.75;entryY=0;entryDx=0;entryDy=0;" parent="1" target="120g7Sf-2aDO3MHEND-O-25" edge="1">
          <mxGeometry relative="1" as="geometry">
            <mxPoint x="650" y="597.5" as="sourcePoint" />
            <mxPoint x="760" y="742.5" as="targetPoint" />
            <Array as="points">
              <mxPoint x="650" y="620" />
              <mxPoint x="760" y="620" />
            </Array>
          </mxGeometry>
        </mxCell>
        <mxCell id="120g7Sf-2aDO3MHEND-O-2" value="&lt;div&gt;APLIKACJA MOBILNA / WWW&lt;/div&gt;" style="rounded=0;whiteSpace=wrap;html=1;" parent="1" vertex="1">
          <mxGeometry x="560" y="570" width="180" height="30" as="geometry" />
        </mxCell>
        <mxCell id="120g7Sf-2aDO3MHEND-O-3" style="edgeStyle=orthogonalEdgeStyle;rounded=0;orthogonalLoop=1;jettySize=auto;html=1;exitX=0.5;exitY=1;exitDx=0;exitDy=0;entryX=0.5;entryY=0;entryDx=0;entryDy=0;endArrow=none;endFill=0;" parent="1" source="120g7Sf-2aDO3MHEND-O-4" target="120g7Sf-2aDO3MHEND-O-6" edge="1">
          <mxGeometry relative="1" as="geometry">
            <Array as="points">
              <mxPoint x="375" y="820" />
              <mxPoint x="506" y="820" />
            </Array>
          </mxGeometry>
        </mxCell>
        <mxCell id="120g7Sf-2aDO3MHEND-O-39" style="edgeStyle=orthogonalEdgeStyle;rounded=0;orthogonalLoop=1;jettySize=auto;html=1;exitX=1;exitY=0.5;exitDx=0;exitDy=0;entryX=0.25;entryY=1;entryDx=0;entryDy=0;endArrow=none;endFill=0;strokeColor=#3399FF;" parent="1" source="120g7Sf-2aDO3MHEND-O-4" target="120g7Sf-2aDO3MHEND-O-14" edge="1">
          <mxGeometry relative="1" as="geometry">
            <Array as="points">
              <mxPoint x="555" y="770" />
            </Array>
          </mxGeometry>
        </mxCell>
        <mxCell id="120g7Sf-2aDO3MHEND-O-40" style="edgeStyle=orthogonalEdgeStyle;rounded=0;orthogonalLoop=1;jettySize=auto;html=1;exitX=1;exitY=0.5;exitDx=0;exitDy=0;entryX=0.75;entryY=1;entryDx=0;entryDy=0;endArrow=none;endFill=0;strokeColor=#3399FF;" parent="1" source="120g7Sf-2aDO3MHEND-O-4" target="120g7Sf-2aDO3MHEND-O-25" edge="1">
          <mxGeometry relative="1" as="geometry">
            <Array as="points">
              <mxPoint x="515" y="770" />
              <mxPoint x="515" y="800" />
              <mxPoint x="760" y="800" />
            </Array>
          </mxGeometry>
        </mxCell>
        <mxCell id="120g7Sf-2aDO3MHEND-O-4" value="&lt;div&gt;CENTRALNY KONTROLER (HUB)&lt;/div&gt;" style="rounded=0;whiteSpace=wrap;html=1;" parent="1" vertex="1">
          <mxGeometry x="275" y="755" width="200" height="30" as="geometry" />
        </mxCell>
        <mxCell id="120g7Sf-2aDO3MHEND-O-5" value="&lt;div&gt;INTELIGENTNY TERMOSTAT&lt;/div&gt;" style="rounded=0;whiteSpace=wrap;html=1;" parent="1" vertex="1">
          <mxGeometry x="720" y="825" width="175" height="30" as="geometry" />
        </mxCell>
        <mxCell id="120g7Sf-2aDO3MHEND-O-6" value="&lt;div&gt;SYSTEM ALARMOWY&lt;/div&gt;" style="rounded=0;whiteSpace=wrap;html=1;" parent="1" vertex="1">
          <mxGeometry x="440" y="835" width="132.5" height="30" as="geometry" />
        </mxCell>
        <mxCell id="120g7Sf-2aDO3MHEND-O-7" value="&lt;div&gt;KAMERA IP&lt;/div&gt;" style="rounded=0;whiteSpace=wrap;html=1;" parent="1" vertex="1">
          <mxGeometry x="440" y="885" width="80" height="30" as="geometry" />
        </mxCell>
        <mxCell id="120g7Sf-2aDO3MHEND-O-8" style="edgeStyle=orthogonalEdgeStyle;rounded=0;orthogonalLoop=1;jettySize=auto;html=1;entryX=1;entryY=0.5;entryDx=0;entryDy=0;endArrow=none;endFill=0;" parent="1" target="120g7Sf-2aDO3MHEND-O-7" edge="1">
          <mxGeometry relative="1" as="geometry">
            <mxPoint x="655" y="770" as="sourcePoint" />
            <Array as="points">
              <mxPoint x="655" y="900" />
            </Array>
          </mxGeometry>
        </mxCell>
        <mxCell id="120g7Sf-2aDO3MHEND-O-9" style="edgeStyle=orthogonalEdgeStyle;rounded=0;orthogonalLoop=1;jettySize=auto;html=1;entryX=1;entryY=0.5;entryDx=0;entryDy=0;endArrow=none;endFill=0;" parent="1" target="120g7Sf-2aDO3MHEND-O-6" edge="1">
          <mxGeometry relative="1" as="geometry">
            <mxPoint x="655" y="770" as="sourcePoint" />
            <Array as="points">
              <mxPoint x="655" y="850" />
            </Array>
          </mxGeometry>
        </mxCell>
        <mxCell id="120g7Sf-2aDO3MHEND-O-10" style="edgeStyle=orthogonalEdgeStyle;rounded=0;orthogonalLoop=1;jettySize=auto;html=1;entryX=1;entryY=0.5;entryDx=0;entryDy=0;endArrow=none;endFill=0;" parent="1" target="120g7Sf-2aDO3MHEND-O-20" edge="1">
          <mxGeometry relative="1" as="geometry">
            <mxPoint x="655" y="770" as="sourcePoint" />
            <Array as="points">
              <mxPoint x="655" y="950" />
            </Array>
          </mxGeometry>
        </mxCell>
        <mxCell id="120g7Sf-2aDO3MHEND-O-11" style="edgeStyle=orthogonalEdgeStyle;rounded=0;orthogonalLoop=1;jettySize=auto;html=1;entryX=0;entryY=0.5;entryDx=0;entryDy=0;endArrow=none;endFill=0;" parent="1" target="120g7Sf-2aDO3MHEND-O-5" edge="1">
          <mxGeometry relative="1" as="geometry">
            <mxPoint x="655" y="770" as="sourcePoint" />
            <Array as="points">
              <mxPoint x="655" y="840" />
            </Array>
          </mxGeometry>
        </mxCell>
        <mxCell id="120g7Sf-2aDO3MHEND-O-12" style="edgeStyle=orthogonalEdgeStyle;rounded=0;orthogonalLoop=1;jettySize=auto;html=1;entryX=0;entryY=0.5;entryDx=0;entryDy=0;endArrow=none;endFill=0;" parent="1" target="120g7Sf-2aDO3MHEND-O-19" edge="1">
          <mxGeometry relative="1" as="geometry">
            <mxPoint x="655" y="770" as="sourcePoint" />
            <Array as="points">
              <mxPoint x="655" y="910" />
            </Array>
          </mxGeometry>
        </mxCell>
        <mxCell id="120g7Sf-2aDO3MHEND-O-26" style="edgeStyle=orthogonalEdgeStyle;rounded=0;orthogonalLoop=1;jettySize=auto;html=1;exitX=1;exitY=0.5;exitDx=0;exitDy=0;entryX=0;entryY=0.5;entryDx=0;entryDy=0;endArrow=none;endFill=0;" parent="1" source="120g7Sf-2aDO3MHEND-O-14" target="120g7Sf-2aDO3MHEND-O-25" edge="1">
          <mxGeometry relative="1" as="geometry" />
        </mxCell>
        <mxCell id="120g7Sf-2aDO3MHEND-O-14" value="&lt;div&gt;ROUTER WI-FI&lt;/div&gt;" style="rounded=0;whiteSpace=wrap;html=1;" parent="1" vertex="1">
          <mxGeometry x="530" y="720" width="100" height="30" as="geometry" />
        </mxCell>
        <mxCell id="120g7Sf-2aDO3MHEND-O-15" style="edgeStyle=orthogonalEdgeStyle;rounded=0;orthogonalLoop=1;jettySize=auto;html=1;exitX=1;exitY=0.5;exitDx=0;exitDy=0;entryX=0;entryY=0.5;entryDx=0;entryDy=0;" parent="1" source="120g7Sf-2aDO3MHEND-O-18" target="120g7Sf-2aDO3MHEND-O-7" edge="1">
          <mxGeometry relative="1" as="geometry" />
        </mxCell>
        <mxCell id="120g7Sf-2aDO3MHEND-O-16" style="edgeStyle=orthogonalEdgeStyle;rounded=0;orthogonalLoop=1;jettySize=auto;html=1;exitX=1;exitY=0.5;exitDx=0;exitDy=0;entryX=0;entryY=0.5;entryDx=0;entryDy=0;" parent="1" source="120g7Sf-2aDO3MHEND-O-18" target="120g7Sf-2aDO3MHEND-O-6" edge="1">
          <mxGeometry relative="1" as="geometry" />
        </mxCell>
        <mxCell id="120g7Sf-2aDO3MHEND-O-17" style="edgeStyle=orthogonalEdgeStyle;rounded=0;orthogonalLoop=1;jettySize=auto;html=1;exitX=1;exitY=0.5;exitDx=0;exitDy=0;entryX=0;entryY=0.5;entryDx=0;entryDy=0;" parent="1" source="120g7Sf-2aDO3MHEND-O-18" target="120g7Sf-2aDO3MHEND-O-20" edge="1">
          <mxGeometry relative="1" as="geometry" />
        </mxCell>
        <mxCell id="120g7Sf-2aDO3MHEND-O-18" value="&lt;div&gt;CZUJNIK RUCHU&lt;/div&gt;" style="rounded=0;whiteSpace=wrap;html=1;" parent="1" vertex="1">
          <mxGeometry x="270" y="885" width="110" height="30" as="geometry" />
        </mxCell>
        <mxCell id="120g7Sf-2aDO3MHEND-O-19" value="&lt;div&gt;INTELIGENTNY ZAMEK DRZWI&lt;/div&gt;" style="rounded=0;whiteSpace=wrap;html=1;" parent="1" vertex="1">
          <mxGeometry x="720" y="895" width="180" height="30" as="geometry" />
        </mxCell>
        <mxCell id="120g7Sf-2aDO3MHEND-O-20" value="&lt;div&gt;INTELIGENTNA ŻARÓWKA LED&lt;/div&gt;" style="rounded=0;whiteSpace=wrap;html=1;" parent="1" vertex="1">
          <mxGeometry x="440" y="935" width="190" height="30" as="geometry" />
        </mxCell>
        <mxCell id="120g7Sf-2aDO3MHEND-O-21" style="edgeStyle=orthogonalEdgeStyle;rounded=0;orthogonalLoop=1;jettySize=auto;html=1;entryX=0;entryY=0.5;entryDx=0;entryDy=0;" parent="1" source="120g7Sf-2aDO3MHEND-O-22" target="120g7Sf-2aDO3MHEND-O-2" edge="1">
          <mxGeometry relative="1" as="geometry" />
        </mxCell>
        <mxCell id="120g7Sf-2aDO3MHEND-O-22" value="&lt;div&gt;Użytkownik&lt;/div&gt;" style="shape=umlActor;verticalLabelPosition=bottom;verticalAlign=top;html=1;outlineConnect=0;" parent="1" vertex="1">
          <mxGeometry x="455" y="555" width="30" height="60" as="geometry" />
        </mxCell>
        <mxCell id="120g7Sf-2aDO3MHEND-O-33" style="edgeStyle=orthogonalEdgeStyle;rounded=0;orthogonalLoop=1;jettySize=auto;html=1;exitX=0.55;exitY=0.95;exitDx=0;exitDy=0;exitPerimeter=0;entryX=0.75;entryY=0;entryDx=0;entryDy=0;" parent="1" source="120g7Sf-2aDO3MHEND-O-23" target="120g7Sf-2aDO3MHEND-O-14" edge="1">
          <mxGeometry relative="1" as="geometry">
            <Array as="points">
              <mxPoint x="657" y="700" />
              <mxPoint x="605" y="700" />
            </Array>
          </mxGeometry>
        </mxCell>
        <mxCell id="120g7Sf-2aDO3MHEND-O-34" style="edgeStyle=orthogonalEdgeStyle;rounded=0;orthogonalLoop=1;jettySize=auto;html=1;exitX=0.55;exitY=0.95;exitDx=0;exitDy=0;exitPerimeter=0;entryX=0.25;entryY=0;entryDx=0;entryDy=0;" parent="1" source="120g7Sf-2aDO3MHEND-O-23" target="120g7Sf-2aDO3MHEND-O-25" edge="1">
          <mxGeometry relative="1" as="geometry">
            <Array as="points">
              <mxPoint x="657" y="700" />
              <mxPoint x="710" y="700" />
            </Array>
          </mxGeometry>
        </mxCell>
        <mxCell id="120g7Sf-2aDO3MHEND-O-23" value="INTERNET" style="ellipse;shape=cloud;whiteSpace=wrap;html=1;" parent="1" vertex="1">
          <mxGeometry x="610" y="640" width="85" height="50" as="geometry" />
        </mxCell>
        <mxCell id="120g7Sf-2aDO3MHEND-O-27" style="edgeStyle=orthogonalEdgeStyle;rounded=0;orthogonalLoop=1;jettySize=auto;html=1;exitX=0.5;exitY=1;exitDx=0;exitDy=0;endArrow=none;endFill=0;entryX=0.5;entryY=1;entryDx=0;entryDy=0;" parent="1" source="120g7Sf-2aDO3MHEND-O-25" target="120g7Sf-2aDO3MHEND-O-14" edge="1">
          <mxGeometry relative="1" as="geometry">
            <mxPoint x="655" y="750" as="targetPoint" />
            <Array as="points">
              <mxPoint x="735" y="770" />
              <mxPoint x="580" y="770" />
            </Array>
          </mxGeometry>
        </mxCell>
        <mxCell id="120g7Sf-2aDO3MHEND-O-25" value="&lt;div&gt;ZAPASOWY ROUTER WI-FI&lt;/div&gt;" style="rounded=0;whiteSpace=wrap;html=1;" parent="1" vertex="1">
          <mxGeometry x="685" y="720" width="100" height="30" as="geometry" />
        </mxCell>
        <mxCell id="k5RKmv85pdUVdh6KLd-v-1" style="edgeStyle=orthogonalEdgeStyle;rounded=0;orthogonalLoop=1;jettySize=auto;html=1;exitX=0.5;exitY=1;exitDx=0;exitDy=0;entryX=0.5;entryY=0;entryDx=0;entryDy=0;" edge="1" parent="1" source="k5RKmv85pdUVdh6KLd-v-2" target="k5RKmv85pdUVdh6KLd-v-14">
          <mxGeometry relative="1" as="geometry" />
        </mxCell>
        <mxCell id="k5RKmv85pdUVdh6KLd-v-2" value="&lt;div&gt;APLIKACJA MOBILNA / WWW&lt;/div&gt;" style="rounded=0;whiteSpace=wrap;html=1;" vertex="1" parent="1">
          <mxGeometry x="555" y="1035" width="180" height="30" as="geometry" />
        </mxCell>
        <mxCell id="k5RKmv85pdUVdh6KLd-v-3" style="edgeStyle=orthogonalEdgeStyle;rounded=0;orthogonalLoop=1;jettySize=auto;html=1;exitX=0.5;exitY=1;exitDx=0;exitDy=0;entryX=0.5;entryY=0;entryDx=0;entryDy=0;endArrow=none;endFill=0;" edge="1" parent="1" source="k5RKmv85pdUVdh6KLd-v-4" target="k5RKmv85pdUVdh6KLd-v-6">
          <mxGeometry relative="1" as="geometry" />
        </mxCell>
        <mxCell id="k5RKmv85pdUVdh6KLd-v-4" value="&lt;div&gt;ZAPASOWY KONTROLER (HUB)&lt;/div&gt;" style="rounded=0;whiteSpace=wrap;html=1;" vertex="1" parent="1">
          <mxGeometry x="130" y="1140" width="200" height="30" as="geometry" />
        </mxCell>
        <mxCell id="k5RKmv85pdUVdh6KLd-v-5" value="&lt;div&gt;INTELIGENTNY TERMOSTAT&lt;/div&gt;" style="rounded=0;whiteSpace=wrap;html=1;" vertex="1" parent="1">
          <mxGeometry x="710" y="1225" width="175" height="30" as="geometry" />
        </mxCell>
        <mxCell id="k5RKmv85pdUVdh6KLd-v-6" value="&lt;div&gt;SYSTEM ALARMOWY&lt;/div&gt;" style="rounded=0;whiteSpace=wrap;html=1;" vertex="1" parent="1">
          <mxGeometry x="430" y="1235" width="132.5" height="30" as="geometry" />
        </mxCell>
        <mxCell id="k5RKmv85pdUVdh6KLd-v-7" value="&lt;div&gt;KAMERA IP&lt;/div&gt;" style="rounded=0;whiteSpace=wrap;html=1;" vertex="1" parent="1">
          <mxGeometry x="430" y="1285" width="80" height="30" as="geometry" />
        </mxCell>
        <mxCell id="k5RKmv85pdUVdh6KLd-v-8" style="edgeStyle=orthogonalEdgeStyle;rounded=0;orthogonalLoop=1;jettySize=auto;html=1;exitX=0.5;exitY=1;exitDx=0;exitDy=0;entryX=1;entryY=0.5;entryDx=0;entryDy=0;endArrow=none;endFill=0;" edge="1" parent="1" source="k5RKmv85pdUVdh6KLd-v-14" target="k5RKmv85pdUVdh6KLd-v-7">
          <mxGeometry relative="1" as="geometry" />
        </mxCell>
        <mxCell id="k5RKmv85pdUVdh6KLd-v-9" style="edgeStyle=orthogonalEdgeStyle;rounded=0;orthogonalLoop=1;jettySize=auto;html=1;exitX=0.5;exitY=1;exitDx=0;exitDy=0;entryX=1;entryY=0.5;entryDx=0;entryDy=0;endArrow=none;endFill=0;" edge="1" parent="1" source="k5RKmv85pdUVdh6KLd-v-14" target="k5RKmv85pdUVdh6KLd-v-6">
          <mxGeometry relative="1" as="geometry" />
        </mxCell>
        <mxCell id="k5RKmv85pdUVdh6KLd-v-10" style="edgeStyle=orthogonalEdgeStyle;rounded=0;orthogonalLoop=1;jettySize=auto;html=1;exitX=0.5;exitY=1;exitDx=0;exitDy=0;entryX=1;entryY=0.5;entryDx=0;entryDy=0;endArrow=none;endFill=0;" edge="1" parent="1" source="k5RKmv85pdUVdh6KLd-v-14" target="k5RKmv85pdUVdh6KLd-v-20">
          <mxGeometry relative="1" as="geometry" />
        </mxCell>
        <mxCell id="k5RKmv85pdUVdh6KLd-v-11" style="edgeStyle=orthogonalEdgeStyle;rounded=0;orthogonalLoop=1;jettySize=auto;html=1;exitX=0.5;exitY=1;exitDx=0;exitDy=0;entryX=0;entryY=0.5;entryDx=0;entryDy=0;endArrow=none;endFill=0;" edge="1" parent="1" source="k5RKmv85pdUVdh6KLd-v-14" target="k5RKmv85pdUVdh6KLd-v-5">
          <mxGeometry relative="1" as="geometry" />
        </mxCell>
        <mxCell id="k5RKmv85pdUVdh6KLd-v-12" style="edgeStyle=orthogonalEdgeStyle;rounded=0;orthogonalLoop=1;jettySize=auto;html=1;exitX=0.5;exitY=1;exitDx=0;exitDy=0;entryX=0;entryY=0.5;entryDx=0;entryDy=0;endArrow=none;endFill=0;" edge="1" parent="1" source="k5RKmv85pdUVdh6KLd-v-14" target="k5RKmv85pdUVdh6KLd-v-19">
          <mxGeometry relative="1" as="geometry" />
        </mxCell>
        <mxCell id="k5RKmv85pdUVdh6KLd-v-27" style="edgeStyle=orthogonalEdgeStyle;rounded=0;orthogonalLoop=1;jettySize=auto;html=1;exitX=0.25;exitY=0;exitDx=0;exitDy=0;entryX=0.5;entryY=0;entryDx=0;entryDy=0;endArrow=none;endFill=0;" edge="1" parent="1" source="k5RKmv85pdUVdh6KLd-v-14" target="k5RKmv85pdUVdh6KLd-v-26">
          <mxGeometry relative="1" as="geometry" />
        </mxCell>
        <mxCell id="k5RKmv85pdUVdh6KLd-v-28" style="edgeStyle=orthogonalEdgeStyle;rounded=0;orthogonalLoop=1;jettySize=auto;html=1;exitX=0.25;exitY=0;exitDx=0;exitDy=0;entryX=0.5;entryY=0;entryDx=0;entryDy=0;endArrow=none;endFill=0;" edge="1" parent="1" source="k5RKmv85pdUVdh6KLd-v-14" target="k5RKmv85pdUVdh6KLd-v-4">
          <mxGeometry relative="1" as="geometry" />
        </mxCell>
        <mxCell id="k5RKmv85pdUVdh6KLd-v-14" value="&lt;div&gt;ROUTER WI-FI&lt;/div&gt;" style="rounded=0;whiteSpace=wrap;html=1;" vertex="1" parent="1">
          <mxGeometry x="595" y="1140" width="100" height="30" as="geometry" />
        </mxCell>
        <mxCell id="k5RKmv85pdUVdh6KLd-v-15" style="edgeStyle=orthogonalEdgeStyle;rounded=0;orthogonalLoop=1;jettySize=auto;html=1;exitX=1;exitY=0.5;exitDx=0;exitDy=0;entryX=0;entryY=0.5;entryDx=0;entryDy=0;" edge="1" parent="1" source="k5RKmv85pdUVdh6KLd-v-18" target="k5RKmv85pdUVdh6KLd-v-7">
          <mxGeometry relative="1" as="geometry" />
        </mxCell>
        <mxCell id="k5RKmv85pdUVdh6KLd-v-16" style="edgeStyle=orthogonalEdgeStyle;rounded=0;orthogonalLoop=1;jettySize=auto;html=1;exitX=1;exitY=0.5;exitDx=0;exitDy=0;entryX=0;entryY=0.5;entryDx=0;entryDy=0;" edge="1" parent="1" source="k5RKmv85pdUVdh6KLd-v-18" target="k5RKmv85pdUVdh6KLd-v-6">
          <mxGeometry relative="1" as="geometry" />
        </mxCell>
        <mxCell id="k5RKmv85pdUVdh6KLd-v-17" style="edgeStyle=orthogonalEdgeStyle;rounded=0;orthogonalLoop=1;jettySize=auto;html=1;exitX=1;exitY=0.5;exitDx=0;exitDy=0;entryX=0;entryY=0.5;entryDx=0;entryDy=0;" edge="1" parent="1" source="k5RKmv85pdUVdh6KLd-v-18" target="k5RKmv85pdUVdh6KLd-v-20">
          <mxGeometry relative="1" as="geometry" />
        </mxCell>
        <mxCell id="k5RKmv85pdUVdh6KLd-v-18" value="&lt;div&gt;CZUJNIK RUCHU&lt;/div&gt;" style="rounded=0;whiteSpace=wrap;html=1;" vertex="1" parent="1">
          <mxGeometry x="260" y="1285" width="110" height="30" as="geometry" />
        </mxCell>
        <mxCell id="k5RKmv85pdUVdh6KLd-v-19" value="&lt;div&gt;INTELIGENTNY ZAMEK DRZWI&lt;/div&gt;" style="rounded=0;whiteSpace=wrap;html=1;" vertex="1" parent="1">
          <mxGeometry x="710" y="1295" width="180" height="30" as="geometry" />
        </mxCell>
        <mxCell id="k5RKmv85pdUVdh6KLd-v-20" value="&lt;div&gt;INTELIGENTNA ŻARÓWKA LED&lt;/div&gt;" style="rounded=0;whiteSpace=wrap;html=1;" vertex="1" parent="1">
          <mxGeometry x="430" y="1335" width="190" height="30" as="geometry" />
        </mxCell>
        <mxCell id="k5RKmv85pdUVdh6KLd-v-21" style="edgeStyle=orthogonalEdgeStyle;rounded=0;orthogonalLoop=1;jettySize=auto;html=1;entryX=0;entryY=0.5;entryDx=0;entryDy=0;" edge="1" parent="1" source="k5RKmv85pdUVdh6KLd-v-22" target="k5RKmv85pdUVdh6KLd-v-2">
          <mxGeometry relative="1" as="geometry" />
        </mxCell>
        <mxCell id="k5RKmv85pdUVdh6KLd-v-22" value="&lt;div&gt;Użytkownik&lt;/div&gt;" style="shape=umlActor;verticalLabelPosition=bottom;verticalAlign=top;html=1;outlineConnect=0;" vertex="1" parent="1">
          <mxGeometry x="450" y="1020" width="30" height="60" as="geometry" />
        </mxCell>
        <mxCell id="k5RKmv85pdUVdh6KLd-v-23" value="INTERNET" style="ellipse;shape=cloud;whiteSpace=wrap;html=1;" vertex="1" parent="1">
          <mxGeometry x="750" y="1020" width="120" height="80" as="geometry" />
        </mxCell>
        <mxCell id="k5RKmv85pdUVdh6KLd-v-24" style="edgeStyle=orthogonalEdgeStyle;rounded=0;orthogonalLoop=1;jettySize=auto;html=1;exitX=1;exitY=0.5;exitDx=0;exitDy=0;entryX=0.55;entryY=0.95;entryDx=0;entryDy=0;entryPerimeter=0;endArrow=none;endFill=0;" edge="1" parent="1" source="k5RKmv85pdUVdh6KLd-v-14" target="k5RKmv85pdUVdh6KLd-v-23">
          <mxGeometry relative="1" as="geometry" />
        </mxCell>
        <mxCell id="k5RKmv85pdUVdh6KLd-v-29" style="edgeStyle=orthogonalEdgeStyle;rounded=0;orthogonalLoop=1;jettySize=auto;html=1;exitX=0.5;exitY=1;exitDx=0;exitDy=0;entryX=0.5;entryY=0;entryDx=0;entryDy=0;endArrow=none;endFill=0;" edge="1" parent="1" source="k5RKmv85pdUVdh6KLd-v-26" target="k5RKmv85pdUVdh6KLd-v-6">
          <mxGeometry relative="1" as="geometry" />
        </mxCell>
        <mxCell id="k5RKmv85pdUVdh6KLd-v-26" value="CENTRALNY KONTROLER (HUB)" style="rounded=0;whiteSpace=wrap;html=1;" vertex="1" parent="1">
          <mxGeometry x="362.5" y="1140" width="200" height="30" as="geometry" />
        </mxCell>
        <mxCell id="k5RKmv85pdUVdh6KLd-v-30" style="edgeStyle=orthogonalEdgeStyle;rounded=0;orthogonalLoop=1;jettySize=auto;html=1;exitX=0.5;exitY=1;exitDx=0;exitDy=0;entryX=0.5;entryY=0;entryDx=0;entryDy=0;" edge="1" parent="1" source="k5RKmv85pdUVdh6KLd-v-31" target="k5RKmv85pdUVdh6KLd-v-43">
          <mxGeometry relative="1" as="geometry" />
        </mxCell>
        <mxCell id="k5RKmv85pdUVdh6KLd-v-31" value="&lt;div&gt;APLIKACJA MOBILNA / WWW&lt;/div&gt;" style="rounded=0;whiteSpace=wrap;html=1;" vertex="1" parent="1">
          <mxGeometry x="550" y="1435" width="180" height="30" as="geometry" />
        </mxCell>
        <mxCell id="k5RKmv85pdUVdh6KLd-v-32" style="edgeStyle=orthogonalEdgeStyle;rounded=0;orthogonalLoop=1;jettySize=auto;html=1;exitX=0.5;exitY=1;exitDx=0;exitDy=0;entryX=0.5;entryY=0;entryDx=0;entryDy=0;endArrow=none;endFill=0;" edge="1" parent="1" source="k5RKmv85pdUVdh6KLd-v-33" target="k5RKmv85pdUVdh6KLd-v-35">
          <mxGeometry relative="1" as="geometry" />
        </mxCell>
        <mxCell id="k5RKmv85pdUVdh6KLd-v-33" value="&lt;div&gt;CENTRALNY KONTROLER (HUB)&lt;/div&gt;" style="rounded=0;whiteSpace=wrap;html=1;" vertex="1" parent="1">
          <mxGeometry x="335" y="1525" width="200" height="30" as="geometry" />
        </mxCell>
        <mxCell id="k5RKmv85pdUVdh6KLd-v-34" value="&lt;div&gt;INTELIGENTNY TERMOSTAT&lt;/div&gt;" style="rounded=0;whiteSpace=wrap;html=1;" vertex="1" parent="1">
          <mxGeometry x="705" y="1605" width="175" height="30" as="geometry" />
        </mxCell>
        <mxCell id="k5RKmv85pdUVdh6KLd-v-35" value="&lt;div&gt;SYSTEM ALARMOWY&lt;/div&gt;" style="rounded=0;whiteSpace=wrap;html=1;" vertex="1" parent="1">
          <mxGeometry x="425" y="1615" width="132.5" height="30" as="geometry" />
        </mxCell>
        <mxCell id="k5RKmv85pdUVdh6KLd-v-36" value="&lt;div&gt;KAMERA IP&lt;/div&gt;" style="rounded=0;whiteSpace=wrap;html=1;" vertex="1" parent="1">
          <mxGeometry x="425" y="1665" width="80" height="30" as="geometry" />
        </mxCell>
        <mxCell id="k5RKmv85pdUVdh6KLd-v-37" style="edgeStyle=orthogonalEdgeStyle;rounded=0;orthogonalLoop=1;jettySize=auto;html=1;exitX=0.5;exitY=1;exitDx=0;exitDy=0;entryX=1;entryY=0.5;entryDx=0;entryDy=0;endArrow=none;endFill=0;" edge="1" parent="1" source="k5RKmv85pdUVdh6KLd-v-43" target="k5RKmv85pdUVdh6KLd-v-36">
          <mxGeometry relative="1" as="geometry">
            <Array as="points">
              <mxPoint x="640" y="1700" />
              <mxPoint x="600" y="1700" />
              <mxPoint x="600" y="1680" />
            </Array>
          </mxGeometry>
        </mxCell>
        <mxCell id="k5RKmv85pdUVdh6KLd-v-38" style="edgeStyle=orthogonalEdgeStyle;rounded=0;orthogonalLoop=1;jettySize=auto;html=1;exitX=0.5;exitY=1;exitDx=0;exitDy=0;entryX=1;entryY=0.5;entryDx=0;entryDy=0;endArrow=none;endFill=0;" edge="1" parent="1" source="k5RKmv85pdUVdh6KLd-v-43" target="k5RKmv85pdUVdh6KLd-v-35">
          <mxGeometry relative="1" as="geometry" />
        </mxCell>
        <mxCell id="k5RKmv85pdUVdh6KLd-v-39" style="edgeStyle=orthogonalEdgeStyle;rounded=0;orthogonalLoop=1;jettySize=auto;html=1;exitX=0.5;exitY=1;exitDx=0;exitDy=0;entryX=1;entryY=0.5;entryDx=0;entryDy=0;endArrow=none;endFill=0;" edge="1" parent="1" source="k5RKmv85pdUVdh6KLd-v-43" target="k5RKmv85pdUVdh6KLd-v-49">
          <mxGeometry relative="1" as="geometry" />
        </mxCell>
        <mxCell id="k5RKmv85pdUVdh6KLd-v-40" style="edgeStyle=orthogonalEdgeStyle;rounded=0;orthogonalLoop=1;jettySize=auto;html=1;exitX=0.5;exitY=1;exitDx=0;exitDy=0;entryX=0;entryY=0.5;entryDx=0;entryDy=0;endArrow=none;endFill=0;" edge="1" parent="1" source="k5RKmv85pdUVdh6KLd-v-43" target="k5RKmv85pdUVdh6KLd-v-34">
          <mxGeometry relative="1" as="geometry" />
        </mxCell>
        <mxCell id="k5RKmv85pdUVdh6KLd-v-41" style="edgeStyle=orthogonalEdgeStyle;rounded=0;orthogonalLoop=1;jettySize=auto;html=1;exitX=0.5;exitY=1;exitDx=0;exitDy=0;entryX=0;entryY=0.5;entryDx=0;entryDy=0;endArrow=none;endFill=0;" edge="1" parent="1" source="k5RKmv85pdUVdh6KLd-v-43" target="k5RKmv85pdUVdh6KLd-v-48">
          <mxGeometry relative="1" as="geometry" />
        </mxCell>
        <mxCell id="k5RKmv85pdUVdh6KLd-v-42" style="edgeStyle=orthogonalEdgeStyle;rounded=0;orthogonalLoop=1;jettySize=auto;html=1;exitX=0;exitY=0.5;exitDx=0;exitDy=0;entryX=1;entryY=0.5;entryDx=0;entryDy=0;endArrow=none;endFill=0;" edge="1" parent="1" source="k5RKmv85pdUVdh6KLd-v-43" target="k5RKmv85pdUVdh6KLd-v-33">
          <mxGeometry relative="1" as="geometry" />
        </mxCell>
        <mxCell id="k5RKmv85pdUVdh6KLd-v-43" value="&lt;div&gt;ROUTER WI-FI&lt;/div&gt;" style="rounded=0;whiteSpace=wrap;html=1;" vertex="1" parent="1">
          <mxGeometry x="590" y="1525" width="100" height="30" as="geometry" />
        </mxCell>
        <mxCell id="k5RKmv85pdUVdh6KLd-v-44" style="edgeStyle=orthogonalEdgeStyle;rounded=0;orthogonalLoop=1;jettySize=auto;html=1;exitX=1;exitY=0.5;exitDx=0;exitDy=0;entryX=0;entryY=0.5;entryDx=0;entryDy=0;" edge="1" parent="1" source="k5RKmv85pdUVdh6KLd-v-47" target="k5RKmv85pdUVdh6KLd-v-36">
          <mxGeometry relative="1" as="geometry" />
        </mxCell>
        <mxCell id="k5RKmv85pdUVdh6KLd-v-45" style="edgeStyle=orthogonalEdgeStyle;rounded=0;orthogonalLoop=1;jettySize=auto;html=1;exitX=1;exitY=0.5;exitDx=0;exitDy=0;entryX=0;entryY=0.5;entryDx=0;entryDy=0;" edge="1" parent="1" source="k5RKmv85pdUVdh6KLd-v-47" target="k5RKmv85pdUVdh6KLd-v-35">
          <mxGeometry relative="1" as="geometry" />
        </mxCell>
        <mxCell id="k5RKmv85pdUVdh6KLd-v-46" style="edgeStyle=orthogonalEdgeStyle;rounded=0;orthogonalLoop=1;jettySize=auto;html=1;exitX=1;exitY=0.5;exitDx=0;exitDy=0;entryX=0;entryY=0.5;entryDx=0;entryDy=0;" edge="1" parent="1" source="k5RKmv85pdUVdh6KLd-v-47" target="k5RKmv85pdUVdh6KLd-v-49">
          <mxGeometry relative="1" as="geometry" />
        </mxCell>
        <mxCell id="k5RKmv85pdUVdh6KLd-v-47" value="&lt;div&gt;CZUJNIK RUCHU&lt;/div&gt;" style="rounded=0;whiteSpace=wrap;html=1;" vertex="1" parent="1">
          <mxGeometry x="255" y="1665" width="110" height="30" as="geometry" />
        </mxCell>
        <mxCell id="k5RKmv85pdUVdh6KLd-v-48" value="&lt;div&gt;INTELIGENTNY ZAMEK DRZWI&lt;/div&gt;" style="rounded=0;whiteSpace=wrap;html=1;" vertex="1" parent="1">
          <mxGeometry x="705" y="1675" width="180" height="30" as="geometry" />
        </mxCell>
        <mxCell id="k5RKmv85pdUVdh6KLd-v-49" value="&lt;div&gt;INTELIGENTNA ŻARÓWKA LED&lt;/div&gt;" style="rounded=0;whiteSpace=wrap;html=1;" vertex="1" parent="1">
          <mxGeometry x="425" y="1760" width="190" height="30" as="geometry" />
        </mxCell>
        <mxCell id="k5RKmv85pdUVdh6KLd-v-50" style="edgeStyle=orthogonalEdgeStyle;rounded=0;orthogonalLoop=1;jettySize=auto;html=1;entryX=0;entryY=0.5;entryDx=0;entryDy=0;" edge="1" parent="1" source="k5RKmv85pdUVdh6KLd-v-51" target="k5RKmv85pdUVdh6KLd-v-31">
          <mxGeometry relative="1" as="geometry" />
        </mxCell>
        <mxCell id="k5RKmv85pdUVdh6KLd-v-51" value="&lt;div&gt;Użytkownik&lt;/div&gt;" style="shape=umlActor;verticalLabelPosition=bottom;verticalAlign=top;html=1;outlineConnect=0;" vertex="1" parent="1">
          <mxGeometry x="445" y="1420" width="30" height="60" as="geometry" />
        </mxCell>
        <mxCell id="k5RKmv85pdUVdh6KLd-v-52" value="INTERNET" style="ellipse;shape=cloud;whiteSpace=wrap;html=1;" vertex="1" parent="1">
          <mxGeometry x="745" y="1420" width="120" height="80" as="geometry" />
        </mxCell>
        <mxCell id="k5RKmv85pdUVdh6KLd-v-53" style="edgeStyle=orthogonalEdgeStyle;rounded=0;orthogonalLoop=1;jettySize=auto;html=1;exitX=1;exitY=0.5;exitDx=0;exitDy=0;entryX=0.55;entryY=0.95;entryDx=0;entryDy=0;entryPerimeter=0;endArrow=none;endFill=0;" edge="1" parent="1" source="k5RKmv85pdUVdh6KLd-v-43" target="k5RKmv85pdUVdh6KLd-v-52">
          <mxGeometry relative="1" as="geometry" />
        </mxCell>
        <mxCell id="k5RKmv85pdUVdh6KLd-v-55" style="edgeStyle=orthogonalEdgeStyle;rounded=0;orthogonalLoop=1;jettySize=auto;html=1;exitX=1;exitY=0.5;exitDx=0;exitDy=0;entryX=0.5;entryY=1;entryDx=0;entryDy=0;endArrow=none;endFill=0;" edge="1" parent="1" source="k5RKmv85pdUVdh6KLd-v-54" target="k5RKmv85pdUVdh6KLd-v-43">
          <mxGeometry relative="1" as="geometry">
            <Array as="points">
              <mxPoint x="600" y="1725" />
              <mxPoint x="600" y="1700" />
              <mxPoint x="640" y="1700" />
            </Array>
          </mxGeometry>
        </mxCell>
        <mxCell id="k5RKmv85pdUVdh6KLd-v-54" value="CZUJNIK RUCHU Z KAMERĄ" style="rounded=0;whiteSpace=wrap;html=1;" vertex="1" parent="1">
          <mxGeometry x="425" y="1710" width="132.5" height="30" as="geometry" />
        </mxCell>
        <mxCell id="k5RKmv85pdUVdh6KLd-v-56" style="edgeStyle=orthogonalEdgeStyle;rounded=0;orthogonalLoop=1;jettySize=auto;html=1;exitX=0.5;exitY=1;exitDx=0;exitDy=0;entryX=0.5;entryY=0;entryDx=0;entryDy=0;" edge="1" parent="1" source="k5RKmv85pdUVdh6KLd-v-57" target="k5RKmv85pdUVdh6KLd-v-69">
          <mxGeometry relative="1" as="geometry" />
        </mxCell>
        <mxCell id="k5RKmv85pdUVdh6KLd-v-57" value="&lt;div&gt;APLIKACJA MOBILNA / WWW&lt;/div&gt;" style="rounded=0;whiteSpace=wrap;html=1;" vertex="1" parent="1">
          <mxGeometry x="-105" y="210" width="180" height="30" as="geometry" />
        </mxCell>
        <mxCell id="k5RKmv85pdUVdh6KLd-v-58" style="edgeStyle=orthogonalEdgeStyle;rounded=0;orthogonalLoop=1;jettySize=auto;html=1;exitX=0.5;exitY=1;exitDx=0;exitDy=0;entryX=0.5;entryY=0;entryDx=0;entryDy=0;endArrow=none;endFill=0;" edge="1" parent="1" source="k5RKmv85pdUVdh6KLd-v-59" target="k5RKmv85pdUVdh6KLd-v-61">
          <mxGeometry relative="1" as="geometry" />
        </mxCell>
        <mxCell id="k5RKmv85pdUVdh6KLd-v-83" style="edgeStyle=orthogonalEdgeStyle;rounded=0;orthogonalLoop=1;jettySize=auto;html=1;exitX=0.5;exitY=1;exitDx=0;exitDy=0;entryX=0.5;entryY=0;entryDx=0;entryDy=0;endArrow=none;endFill=0;" edge="1" parent="1" source="k5RKmv85pdUVdh6KLd-v-59" target="k5RKmv85pdUVdh6KLd-v-80">
          <mxGeometry relative="1" as="geometry" />
        </mxCell>
        <mxCell id="k5RKmv85pdUVdh6KLd-v-59" value="&lt;div&gt;CENTRALNY KONTROLER (HUB)&lt;/div&gt;" style="rounded=0;whiteSpace=wrap;html=1;" vertex="1" parent="1">
          <mxGeometry x="-320" y="300" width="200" height="30" as="geometry" />
        </mxCell>
        <mxCell id="k5RKmv85pdUVdh6KLd-v-60" value="&lt;div&gt;INTELIGENTNY TERMOSTAT&lt;/div&gt;" style="rounded=0;whiteSpace=wrap;html=1;" vertex="1" parent="1">
          <mxGeometry x="50" y="380" width="175" height="30" as="geometry" />
        </mxCell>
        <mxCell id="k5RKmv85pdUVdh6KLd-v-81" style="edgeStyle=orthogonalEdgeStyle;rounded=0;orthogonalLoop=1;jettySize=auto;html=1;exitX=0.5;exitY=1;exitDx=0;exitDy=0;entryX=0.5;entryY=1;entryDx=0;entryDy=0;endArrow=none;endFill=0;" edge="1" parent="1" source="k5RKmv85pdUVdh6KLd-v-61" target="k5RKmv85pdUVdh6KLd-v-69">
          <mxGeometry relative="1" as="geometry" />
        </mxCell>
        <mxCell id="k5RKmv85pdUVdh6KLd-v-61" value="&lt;div&gt;SYSTEM ALARMOWY&lt;/div&gt;" style="rounded=0;whiteSpace=wrap;html=1;" vertex="1" parent="1">
          <mxGeometry x="-340" y="370" width="132.5" height="30" as="geometry" />
        </mxCell>
        <mxCell id="k5RKmv85pdUVdh6KLd-v-62" value="&lt;div&gt;KAMERA IP&lt;/div&gt;" style="rounded=0;whiteSpace=wrap;html=1;" vertex="1" parent="1">
          <mxGeometry x="-340" y="440" width="80" height="30" as="geometry" />
        </mxCell>
        <mxCell id="k5RKmv85pdUVdh6KLd-v-63" style="edgeStyle=orthogonalEdgeStyle;rounded=0;orthogonalLoop=1;jettySize=auto;html=1;exitX=0.5;exitY=1;exitDx=0;exitDy=0;entryX=1;entryY=0.5;entryDx=0;entryDy=0;endArrow=none;endFill=0;" edge="1" parent="1" source="k5RKmv85pdUVdh6KLd-v-69" target="k5RKmv85pdUVdh6KLd-v-62">
          <mxGeometry relative="1" as="geometry" />
        </mxCell>
        <mxCell id="k5RKmv85pdUVdh6KLd-v-65" style="edgeStyle=orthogonalEdgeStyle;rounded=0;orthogonalLoop=1;jettySize=auto;html=1;exitX=0.5;exitY=1;exitDx=0;exitDy=0;entryX=1;entryY=0.5;entryDx=0;entryDy=0;endArrow=none;endFill=0;" edge="1" parent="1" source="k5RKmv85pdUVdh6KLd-v-69" target="k5RKmv85pdUVdh6KLd-v-75">
          <mxGeometry relative="1" as="geometry" />
        </mxCell>
        <mxCell id="k5RKmv85pdUVdh6KLd-v-66" style="edgeStyle=orthogonalEdgeStyle;rounded=0;orthogonalLoop=1;jettySize=auto;html=1;exitX=0.5;exitY=1;exitDx=0;exitDy=0;entryX=0;entryY=0.5;entryDx=0;entryDy=0;endArrow=none;endFill=0;" edge="1" parent="1" source="k5RKmv85pdUVdh6KLd-v-69" target="k5RKmv85pdUVdh6KLd-v-60">
          <mxGeometry relative="1" as="geometry" />
        </mxCell>
        <mxCell id="k5RKmv85pdUVdh6KLd-v-67" style="edgeStyle=orthogonalEdgeStyle;rounded=0;orthogonalLoop=1;jettySize=auto;html=1;exitX=0.5;exitY=1;exitDx=0;exitDy=0;entryX=0;entryY=0.5;entryDx=0;entryDy=0;endArrow=none;endFill=0;" edge="1" parent="1" source="k5RKmv85pdUVdh6KLd-v-69" target="k5RKmv85pdUVdh6KLd-v-74">
          <mxGeometry relative="1" as="geometry" />
        </mxCell>
        <mxCell id="k5RKmv85pdUVdh6KLd-v-68" style="edgeStyle=orthogonalEdgeStyle;rounded=0;orthogonalLoop=1;jettySize=auto;html=1;exitX=0;exitY=0.5;exitDx=0;exitDy=0;entryX=1;entryY=0.5;entryDx=0;entryDy=0;endArrow=none;endFill=0;" edge="1" parent="1" source="k5RKmv85pdUVdh6KLd-v-69" target="k5RKmv85pdUVdh6KLd-v-59">
          <mxGeometry relative="1" as="geometry" />
        </mxCell>
        <mxCell id="k5RKmv85pdUVdh6KLd-v-69" value="&lt;div&gt;ROUTER WI-FI&lt;/div&gt;" style="rounded=0;whiteSpace=wrap;html=1;" vertex="1" parent="1">
          <mxGeometry x="-65" y="300" width="100" height="30" as="geometry" />
        </mxCell>
        <mxCell id="k5RKmv85pdUVdh6KLd-v-70" style="edgeStyle=orthogonalEdgeStyle;rounded=0;orthogonalLoop=1;jettySize=auto;html=1;exitX=1;exitY=0.5;exitDx=0;exitDy=0;entryX=0;entryY=0.5;entryDx=0;entryDy=0;strokeColor=#3399FF;" edge="1" parent="1" source="k5RKmv85pdUVdh6KLd-v-73" target="k5RKmv85pdUVdh6KLd-v-62">
          <mxGeometry relative="1" as="geometry" />
        </mxCell>
        <mxCell id="k5RKmv85pdUVdh6KLd-v-71" style="edgeStyle=orthogonalEdgeStyle;rounded=0;orthogonalLoop=1;jettySize=auto;html=1;exitX=1;exitY=0.5;exitDx=0;exitDy=0;entryX=0;entryY=0.5;entryDx=0;entryDy=0;strokeColor=#3399FF;" edge="1" parent="1" source="k5RKmv85pdUVdh6KLd-v-73" target="k5RKmv85pdUVdh6KLd-v-61">
          <mxGeometry relative="1" as="geometry" />
        </mxCell>
        <mxCell id="k5RKmv85pdUVdh6KLd-v-72" style="edgeStyle=orthogonalEdgeStyle;rounded=0;orthogonalLoop=1;jettySize=auto;html=1;exitX=1;exitY=0.5;exitDx=0;exitDy=0;entryX=0;entryY=0.5;entryDx=0;entryDy=0;strokeColor=#3399FF;" edge="1" parent="1" source="k5RKmv85pdUVdh6KLd-v-73" target="k5RKmv85pdUVdh6KLd-v-75">
          <mxGeometry relative="1" as="geometry" />
        </mxCell>
        <mxCell id="k5RKmv85pdUVdh6KLd-v-84" style="edgeStyle=orthogonalEdgeStyle;rounded=0;orthogonalLoop=1;jettySize=auto;html=1;exitX=1;exitY=0.5;exitDx=0;exitDy=0;entryX=0.25;entryY=1;entryDx=0;entryDy=0;strokeColor=#3399FF;" edge="1" parent="1" source="k5RKmv85pdUVdh6KLd-v-73" target="k5RKmv85pdUVdh6KLd-v-80">
          <mxGeometry relative="1" as="geometry">
            <Array as="points">
              <mxPoint x="-370" y="455" />
              <mxPoint x="-370" y="430" />
              <mxPoint x="-152" y="430" />
            </Array>
          </mxGeometry>
        </mxCell>
        <mxCell id="k5RKmv85pdUVdh6KLd-v-73" value="&lt;div&gt;CZUJNIK RUCHU&lt;/div&gt;" style="rounded=0;whiteSpace=wrap;html=1;" vertex="1" parent="1">
          <mxGeometry x="-510" y="440" width="110" height="30" as="geometry" />
        </mxCell>
        <mxCell id="k5RKmv85pdUVdh6KLd-v-74" value="&lt;div&gt;INTELIGENTNY ZAMEK DRZWI&lt;/div&gt;" style="rounded=0;whiteSpace=wrap;html=1;" vertex="1" parent="1">
          <mxGeometry x="50" y="450" width="180" height="30" as="geometry" />
        </mxCell>
        <mxCell id="k5RKmv85pdUVdh6KLd-v-75" value="&lt;div&gt;INTELIGENTNA ŻARÓWKA LED&lt;/div&gt;" style="rounded=0;whiteSpace=wrap;html=1;" vertex="1" parent="1">
          <mxGeometry x="-340" y="490" width="190" height="30" as="geometry" />
        </mxCell>
        <mxCell id="k5RKmv85pdUVdh6KLd-v-76" style="edgeStyle=orthogonalEdgeStyle;rounded=0;orthogonalLoop=1;jettySize=auto;html=1;entryX=0;entryY=0.5;entryDx=0;entryDy=0;" edge="1" parent="1" source="k5RKmv85pdUVdh6KLd-v-77" target="k5RKmv85pdUVdh6KLd-v-57">
          <mxGeometry relative="1" as="geometry" />
        </mxCell>
        <mxCell id="k5RKmv85pdUVdh6KLd-v-77" value="&lt;div&gt;Użytkownik&lt;/div&gt;" style="shape=umlActor;verticalLabelPosition=bottom;verticalAlign=top;html=1;outlineConnect=0;" vertex="1" parent="1">
          <mxGeometry x="-210" y="195" width="30" height="60" as="geometry" />
        </mxCell>
        <mxCell id="k5RKmv85pdUVdh6KLd-v-78" value="INTERNET" style="ellipse;shape=cloud;whiteSpace=wrap;html=1;" vertex="1" parent="1">
          <mxGeometry x="90" y="195" width="120" height="80" as="geometry" />
        </mxCell>
        <mxCell id="k5RKmv85pdUVdh6KLd-v-79" style="edgeStyle=orthogonalEdgeStyle;rounded=0;orthogonalLoop=1;jettySize=auto;html=1;exitX=1;exitY=0.5;exitDx=0;exitDy=0;entryX=0.55;entryY=0.95;entryDx=0;entryDy=0;entryPerimeter=0;endArrow=none;endFill=0;" edge="1" parent="1" source="k5RKmv85pdUVdh6KLd-v-69" target="k5RKmv85pdUVdh6KLd-v-78">
          <mxGeometry relative="1" as="geometry" />
        </mxCell>
        <mxCell id="k5RKmv85pdUVdh6KLd-v-82" style="edgeStyle=orthogonalEdgeStyle;rounded=0;orthogonalLoop=1;jettySize=auto;html=1;exitX=0.5;exitY=1;exitDx=0;exitDy=0;entryX=0.5;entryY=1;entryDx=0;entryDy=0;endArrow=none;endFill=0;" edge="1" parent="1" source="k5RKmv85pdUVdh6KLd-v-80" target="k5RKmv85pdUVdh6KLd-v-69">
          <mxGeometry relative="1" as="geometry" />
        </mxCell>
        <mxCell id="k5RKmv85pdUVdh6KLd-v-80" value="ZAPASOWA CENTRALA ALARMOWA" style="rounded=0;whiteSpace=wrap;html=1;" vertex="1" parent="1">
          <mxGeometry x="-190" y="370" width="150" height="30" as="geometry" />
        </mxCell>
        <mxCell id="k5RKmv85pdUVdh6KLd-v-86" style="edgeStyle=orthogonalEdgeStyle;rounded=0;orthogonalLoop=1;jettySize=auto;html=1;exitX=0.5;exitY=1;exitDx=0;exitDy=0;entryX=0.5;entryY=0;entryDx=0;entryDy=0;" edge="1" parent="1" source="k5RKmv85pdUVdh6KLd-v-87" target="k5RKmv85pdUVdh6KLd-v-99">
          <mxGeometry relative="1" as="geometry" />
        </mxCell>
        <mxCell id="k5RKmv85pdUVdh6KLd-v-87" value="&lt;div&gt;APLIKACJA MOBILNA / WWW&lt;/div&gt;" style="rounded=0;whiteSpace=wrap;html=1;" vertex="1" parent="1">
          <mxGeometry x="-240" y="612.5" width="180" height="30" as="geometry" />
        </mxCell>
        <mxCell id="k5RKmv85pdUVdh6KLd-v-88" style="edgeStyle=orthogonalEdgeStyle;rounded=0;orthogonalLoop=1;jettySize=auto;html=1;exitX=0.5;exitY=1;exitDx=0;exitDy=0;entryX=0.5;entryY=0;entryDx=0;entryDy=0;endArrow=none;endFill=0;" edge="1" parent="1" source="k5RKmv85pdUVdh6KLd-v-89" target="k5RKmv85pdUVdh6KLd-v-91">
          <mxGeometry relative="1" as="geometry" />
        </mxCell>
        <mxCell id="k5RKmv85pdUVdh6KLd-v-89" value="&lt;div&gt;CENTRALNY KONTROLER (HUB)&lt;/div&gt;" style="rounded=0;whiteSpace=wrap;html=1;" vertex="1" parent="1">
          <mxGeometry x="-455" y="702.5" width="200" height="30" as="geometry" />
        </mxCell>
        <mxCell id="k5RKmv85pdUVdh6KLd-v-90" value="&lt;div&gt;INTELIGENTNY TERMOSTAT&lt;/div&gt;" style="rounded=0;whiteSpace=wrap;html=1;" vertex="1" parent="1">
          <mxGeometry x="-85" y="782.5" width="175" height="30" as="geometry" />
        </mxCell>
        <mxCell id="k5RKmv85pdUVdh6KLd-v-91" value="&lt;div&gt;SYSTEM ALARMOWY&lt;/div&gt;" style="rounded=0;whiteSpace=wrap;html=1;" vertex="1" parent="1">
          <mxGeometry x="-365" y="792.5" width="132.5" height="30" as="geometry" />
        </mxCell>
        <mxCell id="k5RKmv85pdUVdh6KLd-v-92" value="&lt;div&gt;KAMERA IP&lt;/div&gt;" style="rounded=0;whiteSpace=wrap;html=1;" vertex="1" parent="1">
          <mxGeometry x="-365" y="842.5" width="80" height="30" as="geometry" />
        </mxCell>
        <mxCell id="k5RKmv85pdUVdh6KLd-v-93" style="edgeStyle=orthogonalEdgeStyle;rounded=0;orthogonalLoop=1;jettySize=auto;html=1;exitX=0.5;exitY=1;exitDx=0;exitDy=0;entryX=1;entryY=0.5;entryDx=0;entryDy=0;endArrow=none;endFill=0;" edge="1" parent="1" source="k5RKmv85pdUVdh6KLd-v-99" target="k5RKmv85pdUVdh6KLd-v-92">
          <mxGeometry relative="1" as="geometry" />
        </mxCell>
        <mxCell id="k5RKmv85pdUVdh6KLd-v-94" style="edgeStyle=orthogonalEdgeStyle;rounded=0;orthogonalLoop=1;jettySize=auto;html=1;exitX=0.5;exitY=1;exitDx=0;exitDy=0;entryX=1;entryY=0.5;entryDx=0;entryDy=0;endArrow=none;endFill=0;" edge="1" parent="1" source="k5RKmv85pdUVdh6KLd-v-99" target="k5RKmv85pdUVdh6KLd-v-91">
          <mxGeometry relative="1" as="geometry" />
        </mxCell>
        <mxCell id="k5RKmv85pdUVdh6KLd-v-95" style="edgeStyle=orthogonalEdgeStyle;rounded=0;orthogonalLoop=1;jettySize=auto;html=1;exitX=0.5;exitY=1;exitDx=0;exitDy=0;entryX=1;entryY=0.5;entryDx=0;entryDy=0;endArrow=none;endFill=0;" edge="1" parent="1" source="k5RKmv85pdUVdh6KLd-v-99" target="k5RKmv85pdUVdh6KLd-v-105">
          <mxGeometry relative="1" as="geometry" />
        </mxCell>
        <mxCell id="k5RKmv85pdUVdh6KLd-v-96" style="edgeStyle=orthogonalEdgeStyle;rounded=0;orthogonalLoop=1;jettySize=auto;html=1;exitX=0.5;exitY=1;exitDx=0;exitDy=0;entryX=0;entryY=0.5;entryDx=0;entryDy=0;endArrow=none;endFill=0;" edge="1" parent="1" source="k5RKmv85pdUVdh6KLd-v-99" target="k5RKmv85pdUVdh6KLd-v-90">
          <mxGeometry relative="1" as="geometry" />
        </mxCell>
        <mxCell id="k5RKmv85pdUVdh6KLd-v-97" style="edgeStyle=orthogonalEdgeStyle;rounded=0;orthogonalLoop=1;jettySize=auto;html=1;exitX=0.5;exitY=1;exitDx=0;exitDy=0;entryX=0;entryY=0.5;entryDx=0;entryDy=0;endArrow=none;endFill=0;" edge="1" parent="1" source="k5RKmv85pdUVdh6KLd-v-99" target="k5RKmv85pdUVdh6KLd-v-104">
          <mxGeometry relative="1" as="geometry" />
        </mxCell>
        <mxCell id="k5RKmv85pdUVdh6KLd-v-98" style="edgeStyle=orthogonalEdgeStyle;rounded=0;orthogonalLoop=1;jettySize=auto;html=1;exitX=0;exitY=0.5;exitDx=0;exitDy=0;entryX=1;entryY=0.5;entryDx=0;entryDy=0;endArrow=none;endFill=0;" edge="1" parent="1" source="k5RKmv85pdUVdh6KLd-v-99" target="k5RKmv85pdUVdh6KLd-v-89">
          <mxGeometry relative="1" as="geometry" />
        </mxCell>
        <mxCell id="k5RKmv85pdUVdh6KLd-v-99" value="&lt;div&gt;ROUTER WI-FI&lt;/div&gt;" style="rounded=0;whiteSpace=wrap;html=1;" vertex="1" parent="1">
          <mxGeometry x="-200" y="702.5" width="100" height="30" as="geometry" />
        </mxCell>
        <mxCell id="k5RKmv85pdUVdh6KLd-v-100" style="edgeStyle=orthogonalEdgeStyle;rounded=0;orthogonalLoop=1;jettySize=auto;html=1;exitX=1;exitY=0.5;exitDx=0;exitDy=0;entryX=0;entryY=0.5;entryDx=0;entryDy=0;" edge="1" parent="1" source="k5RKmv85pdUVdh6KLd-v-103" target="k5RKmv85pdUVdh6KLd-v-92">
          <mxGeometry relative="1" as="geometry" />
        </mxCell>
        <mxCell id="k5RKmv85pdUVdh6KLd-v-101" style="edgeStyle=orthogonalEdgeStyle;rounded=0;orthogonalLoop=1;jettySize=auto;html=1;exitX=1;exitY=0.5;exitDx=0;exitDy=0;entryX=0;entryY=0.5;entryDx=0;entryDy=0;" edge="1" parent="1" source="k5RKmv85pdUVdh6KLd-v-103" target="k5RKmv85pdUVdh6KLd-v-91">
          <mxGeometry relative="1" as="geometry" />
        </mxCell>
        <mxCell id="k5RKmv85pdUVdh6KLd-v-102" style="edgeStyle=orthogonalEdgeStyle;rounded=0;orthogonalLoop=1;jettySize=auto;html=1;exitX=1;exitY=0.5;exitDx=0;exitDy=0;entryX=0;entryY=0.5;entryDx=0;entryDy=0;" edge="1" parent="1" source="k5RKmv85pdUVdh6KLd-v-103" target="k5RKmv85pdUVdh6KLd-v-105">
          <mxGeometry relative="1" as="geometry" />
        </mxCell>
        <mxCell id="k5RKmv85pdUVdh6KLd-v-103" value="&lt;div&gt;CZUJNIK RUCHU&lt;/div&gt;" style="rounded=0;whiteSpace=wrap;html=1;" vertex="1" parent="1">
          <mxGeometry x="-535" y="842.5" width="110" height="30" as="geometry" />
        </mxCell>
        <mxCell id="k5RKmv85pdUVdh6KLd-v-104" value="&lt;div&gt;INTELIGENTNY ZAMEK DRZWI&lt;/div&gt;" style="rounded=0;whiteSpace=wrap;html=1;" vertex="1" parent="1">
          <mxGeometry x="-85" y="852.5" width="180" height="30" as="geometry" />
        </mxCell>
        <mxCell id="k5RKmv85pdUVdh6KLd-v-105" value="&lt;div&gt;INTELIGENTNA ŻARÓWKA LED&lt;/div&gt;" style="rounded=0;whiteSpace=wrap;html=1;" vertex="1" parent="1">
          <mxGeometry x="-365" y="895" width="190" height="30" as="geometry" />
        </mxCell>
        <mxCell id="k5RKmv85pdUVdh6KLd-v-106" style="edgeStyle=orthogonalEdgeStyle;rounded=0;orthogonalLoop=1;jettySize=auto;html=1;entryX=0;entryY=0.5;entryDx=0;entryDy=0;" edge="1" parent="1" source="k5RKmv85pdUVdh6KLd-v-107" target="k5RKmv85pdUVdh6KLd-v-87">
          <mxGeometry relative="1" as="geometry" />
        </mxCell>
        <mxCell id="k5RKmv85pdUVdh6KLd-v-107" value="&lt;div&gt;Użytkownik&lt;/div&gt;" style="shape=umlActor;verticalLabelPosition=bottom;verticalAlign=top;html=1;outlineConnect=0;" vertex="1" parent="1">
          <mxGeometry x="-345" y="597.5" width="30" height="60" as="geometry" />
        </mxCell>
        <mxCell id="k5RKmv85pdUVdh6KLd-v-108" value="INTERNET" style="ellipse;shape=cloud;whiteSpace=wrap;html=1;" vertex="1" parent="1">
          <mxGeometry x="-45" y="597.5" width="120" height="80" as="geometry" />
        </mxCell>
        <mxCell id="k5RKmv85pdUVdh6KLd-v-109" style="edgeStyle=orthogonalEdgeStyle;rounded=0;orthogonalLoop=1;jettySize=auto;html=1;exitX=1;exitY=0.5;exitDx=0;exitDy=0;entryX=0.55;entryY=0.95;entryDx=0;entryDy=0;entryPerimeter=0;endArrow=none;endFill=0;" edge="1" parent="1" source="k5RKmv85pdUVdh6KLd-v-99" target="k5RKmv85pdUVdh6KLd-v-108">
          <mxGeometry relative="1" as="geometry" />
        </mxCell>
        <mxCell id="k5RKmv85pdUVdh6KLd-v-112" style="edgeStyle=orthogonalEdgeStyle;rounded=0;orthogonalLoop=1;jettySize=auto;html=1;exitX=1;exitY=0.5;exitDx=0;exitDy=0;entryX=0.5;entryY=1;entryDx=0;entryDy=0;endArrow=none;endFill=0;" edge="1" parent="1" source="k5RKmv85pdUVdh6KLd-v-111" target="k5RKmv85pdUVdh6KLd-v-99">
          <mxGeometry relative="1" as="geometry">
            <Array as="points">
              <mxPoint x="-160" y="955" />
              <mxPoint x="-160" y="910" />
              <mxPoint x="-150" y="910" />
            </Array>
          </mxGeometry>
        </mxCell>
        <mxCell id="k5RKmv85pdUVdh6KLd-v-111" value="&lt;div&gt;INTELIGENTNA PRZEŁĄCZNIK ŚCIENNY&lt;/div&gt;" style="rounded=0;whiteSpace=wrap;html=1;" vertex="1" parent="1">
          <mxGeometry x="-365" y="940" width="190" height="30" as="geometry" />
        </mxCell>
        <mxCell id="k5RKmv85pdUVdh6KLd-v-114" style="edgeStyle=orthogonalEdgeStyle;rounded=0;orthogonalLoop=1;jettySize=auto;html=1;exitX=0.5;exitY=1;exitDx=0;exitDy=0;entryX=0.5;entryY=0;entryDx=0;entryDy=0;" edge="1" parent="1" source="k5RKmv85pdUVdh6KLd-v-115" target="k5RKmv85pdUVdh6KLd-v-127">
          <mxGeometry relative="1" as="geometry" />
        </mxCell>
        <mxCell id="k5RKmv85pdUVdh6KLd-v-115" value="&lt;div&gt;APLIKACJA MOBILNA / WWW&lt;/div&gt;" style="rounded=0;whiteSpace=wrap;html=1;" vertex="1" parent="1">
          <mxGeometry x="-260" y="1035" width="180" height="30" as="geometry" />
        </mxCell>
        <mxCell id="k5RKmv85pdUVdh6KLd-v-116" style="edgeStyle=orthogonalEdgeStyle;rounded=0;orthogonalLoop=1;jettySize=auto;html=1;exitX=0.5;exitY=1;exitDx=0;exitDy=0;entryX=0.5;entryY=0;entryDx=0;entryDy=0;endArrow=none;endFill=0;" edge="1" parent="1" source="k5RKmv85pdUVdh6KLd-v-117" target="k5RKmv85pdUVdh6KLd-v-119">
          <mxGeometry relative="1" as="geometry" />
        </mxCell>
        <mxCell id="k5RKmv85pdUVdh6KLd-v-117" value="&lt;div&gt;CENTRALNY KONTROLER (HUB)&lt;/div&gt;" style="rounded=0;whiteSpace=wrap;html=1;" vertex="1" parent="1">
          <mxGeometry x="-475" y="1125" width="200" height="30" as="geometry" />
        </mxCell>
        <mxCell id="k5RKmv85pdUVdh6KLd-v-118" value="&lt;div&gt;INTELIGENTNY TERMOSTAT&lt;/div&gt;" style="rounded=0;whiteSpace=wrap;html=1;" vertex="1" parent="1">
          <mxGeometry x="-105" y="1185" width="175" height="30" as="geometry" />
        </mxCell>
        <mxCell id="k5RKmv85pdUVdh6KLd-v-119" value="&lt;div&gt;SYSTEM ALARMOWY&lt;/div&gt;" style="rounded=0;whiteSpace=wrap;html=1;" vertex="1" parent="1">
          <mxGeometry x="-385" y="1215" width="132.5" height="30" as="geometry" />
        </mxCell>
        <mxCell id="k5RKmv85pdUVdh6KLd-v-120" value="&lt;div&gt;KAMERA IP&lt;/div&gt;" style="rounded=0;whiteSpace=wrap;html=1;" vertex="1" parent="1">
          <mxGeometry x="-385" y="1265" width="80" height="30" as="geometry" />
        </mxCell>
        <mxCell id="k5RKmv85pdUVdh6KLd-v-121" style="edgeStyle=orthogonalEdgeStyle;rounded=0;orthogonalLoop=1;jettySize=auto;html=1;exitX=0.5;exitY=1;exitDx=0;exitDy=0;entryX=1;entryY=0.5;entryDx=0;entryDy=0;endArrow=none;endFill=0;" edge="1" parent="1" source="k5RKmv85pdUVdh6KLd-v-127" target="k5RKmv85pdUVdh6KLd-v-120">
          <mxGeometry relative="1" as="geometry" />
        </mxCell>
        <mxCell id="k5RKmv85pdUVdh6KLd-v-122" style="edgeStyle=orthogonalEdgeStyle;rounded=0;orthogonalLoop=1;jettySize=auto;html=1;exitX=0.5;exitY=1;exitDx=0;exitDy=0;entryX=1;entryY=0.5;entryDx=0;entryDy=0;endArrow=none;endFill=0;" edge="1" parent="1" source="k5RKmv85pdUVdh6KLd-v-127" target="k5RKmv85pdUVdh6KLd-v-119">
          <mxGeometry relative="1" as="geometry" />
        </mxCell>
        <mxCell id="k5RKmv85pdUVdh6KLd-v-123" style="edgeStyle=orthogonalEdgeStyle;rounded=0;orthogonalLoop=1;jettySize=auto;html=1;exitX=0.5;exitY=1;exitDx=0;exitDy=0;entryX=1;entryY=0.5;entryDx=0;entryDy=0;endArrow=none;endFill=0;" edge="1" parent="1" source="k5RKmv85pdUVdh6KLd-v-127" target="k5RKmv85pdUVdh6KLd-v-133">
          <mxGeometry relative="1" as="geometry" />
        </mxCell>
        <mxCell id="k5RKmv85pdUVdh6KLd-v-124" style="edgeStyle=orthogonalEdgeStyle;rounded=0;orthogonalLoop=1;jettySize=auto;html=1;exitX=0.5;exitY=1;exitDx=0;exitDy=0;entryX=0;entryY=0.5;entryDx=0;entryDy=0;endArrow=none;endFill=0;" edge="1" parent="1" source="k5RKmv85pdUVdh6KLd-v-127" target="k5RKmv85pdUVdh6KLd-v-118">
          <mxGeometry relative="1" as="geometry">
            <Array as="points">
              <mxPoint x="-170" y="1220" />
              <mxPoint x="-140" y="1220" />
              <mxPoint x="-140" y="1200" />
            </Array>
          </mxGeometry>
        </mxCell>
        <mxCell id="k5RKmv85pdUVdh6KLd-v-125" style="edgeStyle=orthogonalEdgeStyle;rounded=0;orthogonalLoop=1;jettySize=auto;html=1;exitX=0.5;exitY=1;exitDx=0;exitDy=0;entryX=0;entryY=0.5;entryDx=0;entryDy=0;endArrow=none;endFill=0;" edge="1" parent="1" source="k5RKmv85pdUVdh6KLd-v-127" target="k5RKmv85pdUVdh6KLd-v-132">
          <mxGeometry relative="1" as="geometry" />
        </mxCell>
        <mxCell id="k5RKmv85pdUVdh6KLd-v-126" style="edgeStyle=orthogonalEdgeStyle;rounded=0;orthogonalLoop=1;jettySize=auto;html=1;exitX=0;exitY=0.5;exitDx=0;exitDy=0;entryX=1;entryY=0.5;entryDx=0;entryDy=0;endArrow=none;endFill=0;" edge="1" parent="1" source="k5RKmv85pdUVdh6KLd-v-127" target="k5RKmv85pdUVdh6KLd-v-117">
          <mxGeometry relative="1" as="geometry" />
        </mxCell>
        <mxCell id="k5RKmv85pdUVdh6KLd-v-127" value="&lt;div&gt;ROUTER WI-FI&lt;/div&gt;" style="rounded=0;whiteSpace=wrap;html=1;" vertex="1" parent="1">
          <mxGeometry x="-220" y="1125" width="100" height="30" as="geometry" />
        </mxCell>
        <mxCell id="k5RKmv85pdUVdh6KLd-v-128" style="edgeStyle=orthogonalEdgeStyle;rounded=0;orthogonalLoop=1;jettySize=auto;html=1;exitX=1;exitY=0.5;exitDx=0;exitDy=0;entryX=0;entryY=0.5;entryDx=0;entryDy=0;" edge="1" parent="1" source="k5RKmv85pdUVdh6KLd-v-131" target="k5RKmv85pdUVdh6KLd-v-120">
          <mxGeometry relative="1" as="geometry" />
        </mxCell>
        <mxCell id="k5RKmv85pdUVdh6KLd-v-129" style="edgeStyle=orthogonalEdgeStyle;rounded=0;orthogonalLoop=1;jettySize=auto;html=1;exitX=1;exitY=0.5;exitDx=0;exitDy=0;entryX=0;entryY=0.5;entryDx=0;entryDy=0;" edge="1" parent="1" source="k5RKmv85pdUVdh6KLd-v-131" target="k5RKmv85pdUVdh6KLd-v-119">
          <mxGeometry relative="1" as="geometry" />
        </mxCell>
        <mxCell id="k5RKmv85pdUVdh6KLd-v-130" style="edgeStyle=orthogonalEdgeStyle;rounded=0;orthogonalLoop=1;jettySize=auto;html=1;exitX=1;exitY=0.5;exitDx=0;exitDy=0;entryX=0;entryY=0.5;entryDx=0;entryDy=0;" edge="1" parent="1" source="k5RKmv85pdUVdh6KLd-v-131" target="k5RKmv85pdUVdh6KLd-v-133">
          <mxGeometry relative="1" as="geometry" />
        </mxCell>
        <mxCell id="k5RKmv85pdUVdh6KLd-v-131" value="&lt;div&gt;CZUJNIK RUCHU&lt;/div&gt;" style="rounded=0;whiteSpace=wrap;html=1;" vertex="1" parent="1">
          <mxGeometry x="-555" y="1265" width="110" height="30" as="geometry" />
        </mxCell>
        <mxCell id="k5RKmv85pdUVdh6KLd-v-132" value="&lt;div&gt;INTELIGENTNY ZAMEK DRZWI&lt;/div&gt;" style="rounded=0;whiteSpace=wrap;html=1;" vertex="1" parent="1">
          <mxGeometry x="-105" y="1275" width="180" height="30" as="geometry" />
        </mxCell>
        <mxCell id="k5RKmv85pdUVdh6KLd-v-133" value="&lt;div&gt;INTELIGENTNA ŻARÓWKA LED&lt;/div&gt;" style="rounded=0;whiteSpace=wrap;html=1;" vertex="1" parent="1">
          <mxGeometry x="-385" y="1315" width="190" height="30" as="geometry" />
        </mxCell>
        <mxCell id="k5RKmv85pdUVdh6KLd-v-134" style="edgeStyle=orthogonalEdgeStyle;rounded=0;orthogonalLoop=1;jettySize=auto;html=1;entryX=0;entryY=0.5;entryDx=0;entryDy=0;" edge="1" parent="1" source="k5RKmv85pdUVdh6KLd-v-135" target="k5RKmv85pdUVdh6KLd-v-115">
          <mxGeometry relative="1" as="geometry" />
        </mxCell>
        <mxCell id="k5RKmv85pdUVdh6KLd-v-135" value="&lt;div&gt;Użytkownik&lt;/div&gt;" style="shape=umlActor;verticalLabelPosition=bottom;verticalAlign=top;html=1;outlineConnect=0;" vertex="1" parent="1">
          <mxGeometry x="-365" y="1020" width="30" height="60" as="geometry" />
        </mxCell>
        <mxCell id="k5RKmv85pdUVdh6KLd-v-136" value="INTERNET" style="ellipse;shape=cloud;whiteSpace=wrap;html=1;" vertex="1" parent="1">
          <mxGeometry x="-65" y="1020" width="120" height="80" as="geometry" />
        </mxCell>
        <mxCell id="k5RKmv85pdUVdh6KLd-v-137" style="edgeStyle=orthogonalEdgeStyle;rounded=0;orthogonalLoop=1;jettySize=auto;html=1;exitX=1;exitY=0.5;exitDx=0;exitDy=0;entryX=0.55;entryY=0.95;entryDx=0;entryDy=0;entryPerimeter=0;endArrow=none;endFill=0;" edge="1" parent="1" source="k5RKmv85pdUVdh6KLd-v-127" target="k5RKmv85pdUVdh6KLd-v-136">
          <mxGeometry relative="1" as="geometry" />
        </mxCell>
        <mxCell id="k5RKmv85pdUVdh6KLd-v-139" style="edgeStyle=orthogonalEdgeStyle;rounded=0;orthogonalLoop=1;jettySize=auto;html=1;exitX=0;exitY=0.5;exitDx=0;exitDy=0;entryX=0.5;entryY=1;entryDx=0;entryDy=0;endArrow=none;endFill=0;" edge="1" parent="1" source="k5RKmv85pdUVdh6KLd-v-138" target="k5RKmv85pdUVdh6KLd-v-127">
          <mxGeometry relative="1" as="geometry">
            <Array as="points">
              <mxPoint x="-140" y="1240" />
              <mxPoint x="-140" y="1220" />
              <mxPoint x="-170" y="1220" />
            </Array>
          </mxGeometry>
        </mxCell>
        <mxCell id="k5RKmv85pdUVdh6KLd-v-138" value="&lt;div&gt;TERMOSTAT AWARYJNY&lt;/div&gt;" style="rounded=0;whiteSpace=wrap;html=1;" vertex="1" parent="1">
          <mxGeometry x="-105" y="1225" width="175" height="30" as="geometry" />
        </mxCell>
        <mxCell id="k5RKmv85pdUVdh6KLd-v-142" style="edgeStyle=orthogonalEdgeStyle;rounded=0;orthogonalLoop=1;jettySize=auto;html=1;exitX=0.5;exitY=1;exitDx=0;exitDy=0;entryX=0.5;entryY=0;entryDx=0;entryDy=0;" edge="1" parent="1" source="k5RKmv85pdUVdh6KLd-v-143" target="k5RKmv85pdUVdh6KLd-v-155">
          <mxGeometry relative="1" as="geometry" />
        </mxCell>
        <mxCell id="k5RKmv85pdUVdh6KLd-v-143" value="&lt;div&gt;APLIKACJA MOBILNA / WWW&lt;/div&gt;" style="rounded=0;whiteSpace=wrap;html=1;" vertex="1" parent="1">
          <mxGeometry x="-290" y="1425" width="180" height="30" as="geometry" />
        </mxCell>
        <mxCell id="k5RKmv85pdUVdh6KLd-v-144" style="edgeStyle=orthogonalEdgeStyle;rounded=0;orthogonalLoop=1;jettySize=auto;html=1;exitX=0.5;exitY=1;exitDx=0;exitDy=0;entryX=0.5;entryY=0;entryDx=0;entryDy=0;endArrow=none;endFill=0;" edge="1" parent="1" source="k5RKmv85pdUVdh6KLd-v-145" target="k5RKmv85pdUVdh6KLd-v-147">
          <mxGeometry relative="1" as="geometry" />
        </mxCell>
        <mxCell id="k5RKmv85pdUVdh6KLd-v-145" value="&lt;div&gt;CENTRALNY KONTROLER (HUB)&lt;/div&gt;" style="rounded=0;whiteSpace=wrap;html=1;" vertex="1" parent="1">
          <mxGeometry x="-505" y="1515" width="200" height="30" as="geometry" />
        </mxCell>
        <mxCell id="k5RKmv85pdUVdh6KLd-v-146" value="&lt;div&gt;INTELIGENTNY TERMOSTAT&lt;/div&gt;" style="rounded=0;whiteSpace=wrap;html=1;" vertex="1" parent="1">
          <mxGeometry x="-135" y="1595" width="175" height="30" as="geometry" />
        </mxCell>
        <mxCell id="k5RKmv85pdUVdh6KLd-v-147" value="&lt;div&gt;SYSTEM ALARMOWY&lt;/div&gt;" style="rounded=0;whiteSpace=wrap;html=1;" vertex="1" parent="1">
          <mxGeometry x="-415" y="1605" width="132.5" height="30" as="geometry" />
        </mxCell>
        <mxCell id="k5RKmv85pdUVdh6KLd-v-148" value="&lt;div&gt;KAMERA IP&lt;/div&gt;" style="rounded=0;whiteSpace=wrap;html=1;" vertex="1" parent="1">
          <mxGeometry x="-415" y="1655" width="80" height="30" as="geometry" />
        </mxCell>
        <mxCell id="k5RKmv85pdUVdh6KLd-v-149" style="edgeStyle=orthogonalEdgeStyle;rounded=0;orthogonalLoop=1;jettySize=auto;html=1;exitX=0.5;exitY=1;exitDx=0;exitDy=0;entryX=1;entryY=0.5;entryDx=0;entryDy=0;endArrow=none;endFill=0;" edge="1" parent="1" source="k5RKmv85pdUVdh6KLd-v-155" target="k5RKmv85pdUVdh6KLd-v-148">
          <mxGeometry relative="1" as="geometry" />
        </mxCell>
        <mxCell id="k5RKmv85pdUVdh6KLd-v-150" style="edgeStyle=orthogonalEdgeStyle;rounded=0;orthogonalLoop=1;jettySize=auto;html=1;exitX=0.5;exitY=1;exitDx=0;exitDy=0;entryX=1;entryY=0.5;entryDx=0;entryDy=0;endArrow=none;endFill=0;" edge="1" parent="1" source="k5RKmv85pdUVdh6KLd-v-155" target="k5RKmv85pdUVdh6KLd-v-147">
          <mxGeometry relative="1" as="geometry" />
        </mxCell>
        <mxCell id="k5RKmv85pdUVdh6KLd-v-151" style="edgeStyle=orthogonalEdgeStyle;rounded=0;orthogonalLoop=1;jettySize=auto;html=1;exitX=0.5;exitY=1;exitDx=0;exitDy=0;entryX=1;entryY=0.5;entryDx=0;entryDy=0;endArrow=none;endFill=0;" edge="1" parent="1" source="k5RKmv85pdUVdh6KLd-v-155" target="k5RKmv85pdUVdh6KLd-v-161">
          <mxGeometry relative="1" as="geometry" />
        </mxCell>
        <mxCell id="k5RKmv85pdUVdh6KLd-v-152" style="edgeStyle=orthogonalEdgeStyle;rounded=0;orthogonalLoop=1;jettySize=auto;html=1;exitX=0.5;exitY=1;exitDx=0;exitDy=0;entryX=0;entryY=0.5;entryDx=0;entryDy=0;endArrow=none;endFill=0;" edge="1" parent="1" source="k5RKmv85pdUVdh6KLd-v-155" target="k5RKmv85pdUVdh6KLd-v-146">
          <mxGeometry relative="1" as="geometry" />
        </mxCell>
        <mxCell id="k5RKmv85pdUVdh6KLd-v-153" style="edgeStyle=orthogonalEdgeStyle;rounded=0;orthogonalLoop=1;jettySize=auto;html=1;exitX=0.5;exitY=1;exitDx=0;exitDy=0;entryX=0;entryY=0.5;entryDx=0;entryDy=0;endArrow=none;endFill=0;" edge="1" parent="1" source="k5RKmv85pdUVdh6KLd-v-155" target="k5RKmv85pdUVdh6KLd-v-160">
          <mxGeometry relative="1" as="geometry">
            <Array as="points">
              <mxPoint x="-200" y="1700" />
              <mxPoint x="-170" y="1700" />
              <mxPoint x="-170" y="1680" />
            </Array>
          </mxGeometry>
        </mxCell>
        <mxCell id="k5RKmv85pdUVdh6KLd-v-154" style="edgeStyle=orthogonalEdgeStyle;rounded=0;orthogonalLoop=1;jettySize=auto;html=1;exitX=0;exitY=0.5;exitDx=0;exitDy=0;entryX=1;entryY=0.5;entryDx=0;entryDy=0;endArrow=none;endFill=0;" edge="1" parent="1" source="k5RKmv85pdUVdh6KLd-v-155" target="k5RKmv85pdUVdh6KLd-v-145">
          <mxGeometry relative="1" as="geometry" />
        </mxCell>
        <mxCell id="k5RKmv85pdUVdh6KLd-v-155" value="&lt;div&gt;ROUTER WI-FI&lt;/div&gt;" style="rounded=0;whiteSpace=wrap;html=1;" vertex="1" parent="1">
          <mxGeometry x="-250" y="1515" width="100" height="30" as="geometry" />
        </mxCell>
        <mxCell id="k5RKmv85pdUVdh6KLd-v-156" style="edgeStyle=orthogonalEdgeStyle;rounded=0;orthogonalLoop=1;jettySize=auto;html=1;exitX=1;exitY=0.5;exitDx=0;exitDy=0;entryX=0;entryY=0.5;entryDx=0;entryDy=0;" edge="1" parent="1" source="k5RKmv85pdUVdh6KLd-v-159" target="k5RKmv85pdUVdh6KLd-v-148">
          <mxGeometry relative="1" as="geometry" />
        </mxCell>
        <mxCell id="k5RKmv85pdUVdh6KLd-v-157" style="edgeStyle=orthogonalEdgeStyle;rounded=0;orthogonalLoop=1;jettySize=auto;html=1;exitX=1;exitY=0.5;exitDx=0;exitDy=0;entryX=0;entryY=0.5;entryDx=0;entryDy=0;" edge="1" parent="1" source="k5RKmv85pdUVdh6KLd-v-159" target="k5RKmv85pdUVdh6KLd-v-147">
          <mxGeometry relative="1" as="geometry" />
        </mxCell>
        <mxCell id="k5RKmv85pdUVdh6KLd-v-158" style="edgeStyle=orthogonalEdgeStyle;rounded=0;orthogonalLoop=1;jettySize=auto;html=1;exitX=1;exitY=0.5;exitDx=0;exitDy=0;entryX=0;entryY=0.5;entryDx=0;entryDy=0;" edge="1" parent="1" source="k5RKmv85pdUVdh6KLd-v-159" target="k5RKmv85pdUVdh6KLd-v-161">
          <mxGeometry relative="1" as="geometry" />
        </mxCell>
        <mxCell id="k5RKmv85pdUVdh6KLd-v-159" value="&lt;div&gt;CZUJNIK RUCHU&lt;/div&gt;" style="rounded=0;whiteSpace=wrap;html=1;" vertex="1" parent="1">
          <mxGeometry x="-585" y="1655" width="110" height="30" as="geometry" />
        </mxCell>
        <mxCell id="k5RKmv85pdUVdh6KLd-v-160" value="&lt;div&gt;INTELIGENTNY ZAMEK DRZWI&lt;/div&gt;" style="rounded=0;whiteSpace=wrap;html=1;" vertex="1" parent="1">
          <mxGeometry x="-135" y="1665" width="180" height="30" as="geometry" />
        </mxCell>
        <mxCell id="k5RKmv85pdUVdh6KLd-v-161" value="&lt;div&gt;INTELIGENTNA ŻARÓWKA LED&lt;/div&gt;" style="rounded=0;whiteSpace=wrap;html=1;" vertex="1" parent="1">
          <mxGeometry x="-415" y="1705" width="190" height="30" as="geometry" />
        </mxCell>
        <mxCell id="k5RKmv85pdUVdh6KLd-v-162" style="edgeStyle=orthogonalEdgeStyle;rounded=0;orthogonalLoop=1;jettySize=auto;html=1;entryX=0;entryY=0.5;entryDx=0;entryDy=0;" edge="1" parent="1" source="k5RKmv85pdUVdh6KLd-v-163" target="k5RKmv85pdUVdh6KLd-v-143">
          <mxGeometry relative="1" as="geometry" />
        </mxCell>
        <mxCell id="k5RKmv85pdUVdh6KLd-v-163" value="&lt;div&gt;Użytkownik&lt;/div&gt;" style="shape=umlActor;verticalLabelPosition=bottom;verticalAlign=top;html=1;outlineConnect=0;" vertex="1" parent="1">
          <mxGeometry x="-395" y="1410" width="30" height="60" as="geometry" />
        </mxCell>
        <mxCell id="k5RKmv85pdUVdh6KLd-v-164" value="INTERNET" style="ellipse;shape=cloud;whiteSpace=wrap;html=1;" vertex="1" parent="1">
          <mxGeometry x="-95" y="1410" width="120" height="80" as="geometry" />
        </mxCell>
        <mxCell id="k5RKmv85pdUVdh6KLd-v-165" style="edgeStyle=orthogonalEdgeStyle;rounded=0;orthogonalLoop=1;jettySize=auto;html=1;exitX=1;exitY=0.5;exitDx=0;exitDy=0;entryX=0.55;entryY=0.95;entryDx=0;entryDy=0;entryPerimeter=0;endArrow=none;endFill=0;" edge="1" parent="1" source="k5RKmv85pdUVdh6KLd-v-155" target="k5RKmv85pdUVdh6KLd-v-164">
          <mxGeometry relative="1" as="geometry" />
        </mxCell>
        <mxCell id="k5RKmv85pdUVdh6KLd-v-167" style="edgeStyle=orthogonalEdgeStyle;rounded=0;orthogonalLoop=1;jettySize=auto;html=1;exitX=0;exitY=0.5;exitDx=0;exitDy=0;entryX=0.5;entryY=1;entryDx=0;entryDy=0;endArrow=none;endFill=0;" edge="1" parent="1" source="k5RKmv85pdUVdh6KLd-v-166" target="k5RKmv85pdUVdh6KLd-v-155">
          <mxGeometry relative="1" as="geometry">
            <Array as="points">
              <mxPoint x="-170" y="1725" />
              <mxPoint x="-170" y="1700" />
              <mxPoint x="-200" y="1700" />
            </Array>
          </mxGeometry>
        </mxCell>
        <mxCell id="k5RKmv85pdUVdh6KLd-v-166" value="ZEWNĘTRZNA KLAWIATURA KODOWA" style="rounded=0;whiteSpace=wrap;html=1;" vertex="1" parent="1">
          <mxGeometry x="-135" y="1710" width="180" height="30" as="geometry" />
        </mxCell>
      </root>
    </mxGraphModel>
  </diagram>
</mxfile>
